<?xml version="1.0" encoding="UTF-8"?>
<svg version="1.1" xmlns="http://www.w3.org/2000/svg" width="512" height="512">
<path d="M0 0 C0.89266658 -0.00453111 1.78533315 -0.00906223 2.70505023 -0.01373065 C5.6787255 -0.02633152 8.65221661 -0.02475706 11.62591553 -0.02310181 C13.76523574 -0.02908976 15.90455379 -0.03589592 18.04386902 -0.04345703 C23.84361442 -0.06109739 29.64330077 -0.0658116 35.44307041 -0.0670886 C39.0701337 -0.06851192 42.69718206 -0.07278495 46.32424164 -0.07808304 C58.98812307 -0.0965771 71.65196245 -0.10475446 84.31585693 -0.10317993 C96.10377023 -0.10197884 107.89150035 -0.12307662 119.6793673 -0.15466726 C129.8138236 -0.180855 139.94822017 -0.19154617 150.08271003 -0.19026911 C156.12936583 -0.1897602 162.1758588 -0.19540438 168.22248077 -0.21662521 C173.91234426 -0.23604945 179.60189025 -0.23610327 185.29176521 -0.22159195 C187.3733854 -0.21950794 189.45502568 -0.22418028 191.53661156 -0.23631287 C209.4740141 -0.3340437 223.55194559 2.33843686 237.11712646 15.07992554 C249.25410211 28.03596089 251.40990598 43.00254444 251.31256104 59.99179077 C251.31717767 61.75916525 251.32353568 63.52653588 251.33147001 65.29389858 C251.34808173 70.11940857 251.33995427 74.94459986 251.32752514 79.77011061 C251.31844341 84.98628812 251.33245982 90.20241232 251.34344482 95.4185791 C251.36120136 105.62477623 251.35740282 115.83085548 251.34579426 126.03705716 C251.33674893 134.33422387 251.3355407 142.63135761 251.33988953 150.92852783 C251.34050246 152.11086768 251.34111539 153.29320752 251.3417469 154.51137584 C251.34302584 156.91351741 251.34432269 159.31565896 251.34563726 161.7178005 C251.35703467 184.22571937 251.34394251 206.73357301 251.3224358 229.24148118 C251.3045656 248.54085207 251.30766994 267.8401267 251.32611084 287.13949585 C251.34753236 309.56864156 251.35593611 331.99773014 251.34366179 354.42688465 C251.34238763 356.82003084 251.34113015 359.21317704 251.33988953 361.60632324 C251.33896387 363.37238589 251.33896387 363.37238589 251.33801952 365.17412657 C251.33457047 373.45824111 251.34038537 381.74231931 251.34980774 390.02642822 C251.36104332 400.12641492 251.35795483 410.22627732 251.33668476 420.32624984 C251.32619542 425.47624789 251.32201646 430.62603893 251.33528137 435.77603531 C251.34725489 440.4961534 251.34056133 445.21587379 251.31937116 449.93595612 C251.31492605 451.63766786 251.31712398 453.33941363 251.32687432 455.04110324 C251.41615169 471.92581317 247.89939936 485.75533785 236.11712646 498.51742554 C226.13032112 507.92472574 213.97868077 512.75549336 200.3687439 512.65510559 C199.47436847 512.66049113 198.57999305 512.66587667 197.65851533 512.6714254 C194.69096175 512.68562064 191.72385957 512.67862221 188.75628662 512.67147827 C186.61667017 512.67718627 184.47705676 512.68415219 182.33744812 512.692276 C176.54605281 512.71017547 170.75480928 512.70904497 164.96339464 512.70333362 C160.12010819 512.70023697 155.27685069 512.70633956 150.43356836 512.71237236 C139.0031933 512.7264056 127.572893 512.72486642 116.14251709 512.71347046 C104.36932157 512.70199174 92.59635392 512.71606367 80.82318842 512.74286693 C70.69717676 512.76505299 60.57123647 512.77165471 50.44520223 512.76579052 C44.40529317 512.76242657 38.36553014 512.76479877 32.32564163 512.78204155 C26.64394489 512.79755471 20.96258462 512.79350646 15.28090096 512.7747364 C13.20250956 512.77106257 11.12409299 512.77412357 9.04572487 512.78462219 C-8.47444803 512.86632778 -23.09998182 510.24678811 -36.54302979 498.00570679 C-47.25740977 486.73407773 -51.37204548 473.0889297 -51.30889893 457.86557007 C-51.30904495 456.93810471 -51.30919098 456.01063934 -51.30934143 455.05506897 C-51.30864731 452.00343449 -51.30087837 448.9518618 -51.29302979 445.90023804 C-51.29116383 443.77889031 -51.28974076 441.65754216 -51.28874207 439.53619385 C-51.28493089 433.96313276 -51.27511255 428.39009788 -51.26403809 422.81704712 C-51.25379387 417.12603103 -51.249238 411.43501069 -51.24420166 405.74398804 C-51.23348902 394.58512238 -51.21642941 383.42627614 -51.19537354 372.26742554 C-52.122854 372.28313599 -53.05033447 372.29884644 -54.00592041 372.31503296 C-57.47993676 372.36646611 -60.9535426 372.40392235 -64.42779541 372.43222046 C-65.92525661 372.44721442 -67.42267459 372.46761659 -68.91998291 372.4937439 C-79.56716672 372.67474602 -88.37310977 372.59699807 -96.65631104 365.01351929 C-101.10098666 359.97095583 -103.31519373 353.75642895 -103.3268013 347.08343983 C-103.33064245 346.25197778 -103.33448359 345.42051572 -103.33844113 344.56385785 C-103.33757465 343.6556026 -103.33670817 342.74734735 -103.33581543 341.81156921 C-103.33878655 340.84261615 -103.34175767 339.87366308 -103.34481883 338.87534779 C-103.35350918 335.61971984 -103.35501437 332.36412864 -103.35650635 329.10848999 C-103.36113431 326.77770407 -103.36615894 324.44691892 -103.37155151 322.11613464 C-103.38468026 315.77712668 -103.39112149 309.43812932 -103.39556217 303.09910989 C-103.39849233 299.13908702 -103.40259705 295.17906705 -103.40706635 291.21904564 C-103.41917578 280.24975498 -103.42955745 269.28046684 -103.43294144 258.31116962 C-103.433161 257.60928269 -103.43338057 256.90739575 -103.43360679 256.18423952 C-103.43382507 255.48069343 -103.43404334 254.77714734 -103.43426824 254.05228168 C-103.4347117 252.62668184 -103.43515826 251.20108201 -103.43560791 249.77548218 C-103.43582934 249.06833866 -103.43605077 248.36119515 -103.43627891 247.63262304 C-103.44022499 236.18024311 -103.45767345 224.72792689 -103.48096743 213.27557156 C-103.50470311 201.51083983 -103.51714432 189.74614003 -103.51830935 177.98138398 C-103.51935751 171.37867351 -103.52526774 164.77605287 -103.54312897 158.17336464 C-103.55960764 151.96078355 -103.56176601 145.74835985 -103.55298996 139.53576469 C-103.55221946 137.25776879 -103.55656392 134.97976444 -103.56644821 132.70178986 C-103.5791686 129.58707297 -103.57329003 126.47291338 -103.56286621 123.35820007 C-103.57495082 122.01254761 -103.57495082 122.01254761 -103.58727956 120.63971025 C-103.52205732 112.28135967 -101.74901413 105.00201906 -95.93756104 98.77133179 C-89.49900408 93.21338464 -82.42879219 92.13451737 -74.14459229 92.16976929 C-73.48578568 92.17118423 -72.82697906 92.17259918 -72.14820862 92.17405701 C-70.05971591 92.17962054 -67.97133342 92.19216607 -65.88287354 92.20492554 C-64.46034905 92.20994526 -63.03782287 92.21450734 -61.61529541 92.21859741 C-58.14195277 92.22957796 -54.66867392 92.24681718 -51.19537354 92.26742554 C-51.20203537 91.7052533 -51.2086972 91.14308105 -51.21556091 90.56387329 C-51.2824651 84.65798726 -51.32740008 78.75221068 -51.36016846 72.84603882 C-51.37515893 70.64840311 -51.3955582 68.45079682 -51.42169189 66.25326538 C-51.64088418 47.333963 -50.9678368 29.72049912 -37.17584229 15.07601929 C-26.34857574 5.18839718 -14.63002529 -0.05521636 0 0 Z " fill="#E7ECF1" transform="translate(146.19537353515625,-0.267425537109375)"/>
<path d="M0 0 C2.10499269 -0.00436922 4.20787782 -0.04073205 6.3125 -0.07861328 C20.06408061 -0.19977438 20.06408061 -0.19977438 25.7421875 4.37060547 C30.6164746 9.2790741 33.01513555 14.88588663 35.80078125 21.12841797 C38.22227884 25.17236767 40.94386977 27.38514376 45.4175415 28.96060181 C48.91981126 29.57830593 52.4184183 29.54404378 55.96386719 29.56347656 C56.79040802 29.57165405 57.61694885 29.57983154 58.46853638 29.58825684 C61.20037116 29.61304249 63.93215421 29.62960943 66.6640625 29.64404297 C67.59920937 29.64936665 68.53435623 29.65469032 69.49784088 29.66017532 C74.44777099 29.68687737 79.39767613 29.70626159 84.34765625 29.72070312 C88.4370766 29.73404014 92.52599771 29.76189265 96.61523438 29.80273438 C101.56065213 29.85212168 106.50561724 29.87683147 111.45127106 29.88393021 C113.3314839 29.89063054 115.21168713 29.90582081 117.09175873 29.92982101 C119.72934676 29.96157032 122.36519941 29.96149507 125.00292969 29.95410156 C125.77204681 29.9705069 126.54116394 29.98691223 127.33358765 30.0038147 C133.20354821 29.93681842 137.18329437 28.04684177 141.7421875 24.37060547 C143.91455414 21.70169789 145.40896791 19.09494451 146.84375 15.97607422 C150.19279197 8.77023231 154.18342828 3.42364968 161.7421875 0.37060547 C166.38909984 -0.03162218 171.04155301 -0.00100281 175.70361328 0 C177.97115268 -0.00435414 180.2367134 -0.04063768 182.50390625 -0.07861328 C190.08208648 -0.13915166 196.33173632 -0.14279481 202.7421875 4.37060547 C204.80078125 6.40576172 204.80078125 6.40576172 206.1796875 8.43310547 C206.65277344 9.10470703 207.12585938 9.77630859 207.61328125 10.46826172 C209.95229283 14.4097795 209.86920113 17.7739854 209.87361526 22.26387405 C209.8756679 22.97266699 209.87772053 23.68145992 209.87983537 24.41173142 C209.88552402 26.80487998 209.88404583 29.19797133 209.88262939 31.59112549 C209.88521196 33.31701783 209.88822482 35.04290958 209.8916328 36.7688005 C209.89971879 41.52577057 209.90149326 46.28272557 209.90223026 51.0397017 C209.90407804 56.16457924 209.91162398 61.2894489 209.91836548 66.4143219 C209.93196069 77.62706551 209.93797537 88.83980555 209.94237614 100.05255604 C209.94513656 107.05068093 209.94937354 114.04880445 209.95388031 121.04692841 C209.96607453 140.41353901 209.97637354 159.78014849 209.9797554 179.14676285 C209.98008475 181.00685707 209.98008475 181.00685707 209.98042075 182.90452896 C209.98063903 184.14759965 209.98085731 185.39067034 209.9810822 186.67140985 C209.98152567 189.19044511 209.98197223 191.70948037 209.98242188 194.22851562 C209.98275402 196.10281799 209.98275402 196.10281799 209.98309287 198.01498505 C209.98704172 218.26647612 210.00449772 238.51793121 210.0277814 258.76940838 C210.05148028 279.54933662 210.06395659 300.32924681 210.06512332 321.1091888 C210.06604091 332.78117884 210.07181421 344.45312203 210.08994293 356.12509918 C210.10532417 366.06334267 210.11047608 376.00152482 210.10220483 385.93977794 C210.09829132 391.01197962 210.0992621 396.08405771 210.11326218 401.15624428 C210.12595902 405.79865761 210.12484077 410.44085397 210.11267146 415.08326682 C210.11070714 416.76364257 210.11382671 418.44403346 210.12251583 420.12438789 C210.13357695 422.40784653 210.12614252 424.69053515 210.1141243 426.97397232 C210.11472139 428.24251061 210.11531847 429.51104889 210.11593366 430.81802773 C209.47780865 436.88361172 207.09254134 442.02025163 202.7421875 446.37060547 C197.19357936 449.98181281 192.39080049 450.9535213 185.86157227 450.88526917 C184.57346696 450.89568746 184.57346696 450.89568746 183.25933933 450.90631622 C180.40048823 450.92451784 177.5424734 450.91434112 174.68359375 450.90405273 C172.62644838 450.91111461 170.56930822 450.91986075 168.51217651 450.93016052 C162.93782531 450.95263251 157.36375833 450.94972004 151.78937912 450.94083905 C147.13220708 450.93572395 142.4750882 450.94302588 137.81792164 450.95031112 C126.83071546 450.96730276 115.84364819 450.96375112 104.85644531 450.94702148 C93.52736062 450.93009423 82.19866106 450.9459449 70.86961842 450.97824436 C61.13520109 451.00494447 51.40090363 451.01221529 41.66645336 451.00372928 C35.85576515 450.99880216 30.04530874 451.00100458 24.23464966 451.0215168 C18.7712402 451.03988073 13.30838477 451.03390602 7.84500504 451.0093174 C5.8423401 451.00431215 3.83963289 451.0077918 1.8370018 451.02046585 C-0.90169899 451.03642464 -3.63858157 451.02141941 -6.37719727 450.99879456 C-7.16553672 451.01063028 -7.95387617 451.02246601 -8.7661047 451.0346604 C-15.34653707 450.92457082 -20.19625773 448.46653049 -24.82444096 443.78638941 C-29.316317 438.53297762 -29.39812124 434.94263445 -29.37133789 428.23925781 C-29.37148392 427.29286942 -29.37162994 426.34648102 -29.3717804 425.37141418 C-29.37108192 422.23310072 -29.36329252 419.0948461 -29.35546875 415.95654297 C-29.35360434 413.78463778 -29.35218055 411.61273217 -29.35118103 409.44082642 C-29.34735766 403.7164596 -29.33752889 397.99211805 -29.32647705 392.26776123 C-29.31625907 386.42965029 -29.31168258 380.59153527 -29.30664062 374.75341797 C-29.29590648 363.29246935 -29.2788322 351.83153951 -29.2578125 340.37060547 C-28.62612404 340.36913891 -27.99443558 340.36767235 -27.34360504 340.36616135 C-11.9520975 340.32906165 3.43914705 340.27000533 18.83046722 340.18670273 C26.27370043 340.14694359 33.7168284 340.11453532 41.16015625 340.09960938 C47.6500227 340.08657654 54.13965726 340.05957061 60.6293931 340.0159924 C64.06368121 339.99341383 67.49768371 339.97769259 70.93205261 339.97872162 C74.77211215 339.97635468 78.61126817 339.9492937 82.45117188 339.91650391 C83.58190125 339.92153427 84.71263062 339.92656464 85.87762451 339.93174744 C93.46638753 339.83160917 98.81609408 338.69035241 104.765625 333.65966797 C105.21164062 333.11052734 105.65765625 332.56138672 106.1171875 331.99560547 C106.57867187 331.45162109 107.04015625 330.90763672 107.515625 330.34716797 C110.57597781 325.41551662 111.01943963 320.48510024 111.15625 314.78466797 C111.17561615 314.08288422 111.1949823 313.38110046 111.2149353 312.65805054 C111.27426319 310.43735548 111.32092667 308.21660724 111.3671875 305.99560547 C111.40541052 304.48126113 111.44446472 302.96693753 111.484375 301.45263672 C111.57992484 297.75881716 111.66412687 294.06484076 111.7421875 290.37060547 C112.51004578 290.36251862 113.27790405 290.35443176 114.06903076 290.34609985 C121.30827739 290.26813256 128.54732308 290.18083561 135.78632736 290.08307838 C139.50790434 290.03314991 143.22945341 289.98681972 146.95117188 289.94873047 C150.54339163 289.91183384 154.13537593 289.8654623 157.7273941 289.81254196 C159.09726071 289.79402121 160.46717774 289.77890466 161.83712006 289.76726151 C163.75707406 289.75036015 165.67689736 289.7201912 167.59667969 289.68945312 C168.68922058 289.67612946 169.78176147 289.66280579 170.90740967 289.64907837 C173.74758504 289.37007524 175.42142466 289.01743647 177.7421875 287.37060547 C178.9138242 284.0030036 178.9138242 284.0030036 178.7421875 280.37060547 C176.62987476 277.49442997 175.40943354 276.49114838 171.8694458 275.85162354 C170.75914001 275.84274109 169.64883423 275.83385864 168.50488281 275.82470703 C167.24387756 275.8049884 165.98287231 275.78526978 164.68365479 275.76495361 C163.31254114 275.76329058 161.94142691 275.76205965 160.5703125 275.76123047 C159.16353451 275.74624616 157.75677411 275.72951847 156.35003662 275.71112061 C152.65439031 275.66746192 148.95898129 275.64745166 145.26312256 275.63238525 C141.489076 275.61280853 137.71527913 275.57105514 133.94140625 275.53076172 C126.54150712 275.45338248 119.14270141 275.412991 111.7421875 275.37060547 C111.7421875 261.84060547 111.7421875 248.31060547 111.7421875 234.37060547 C116.24359375 234.34482422 120.745 234.31904297 125.3828125 234.29248047 C128.9736389 234.26080179 132.56437702 234.22515168 136.15513611 234.18681335 C139.94475152 234.14744184 143.73413092 234.11505872 147.52392578 234.09960938 C151.17466385 234.08445707 154.82475984 234.0500385 158.4752121 234.00229645 C159.86739265 233.98746763 161.25966487 233.97956358 162.65192413 233.97872162 C164.60301915 233.97635513 166.55402486 233.94700992 168.50488281 233.91650391 C169.6151886 233.90762146 170.72549438 233.89873901 171.8694458 233.8895874 C175.40898661 233.2501433 176.63318157 232.24926193 178.7421875 229.37060547 C178.83134904 225.74410596 178.83134904 225.74410596 177.7421875 222.37060547 C174.23866601 220.03492448 172.76601111 220.1014297 168.6184082 220.05175781 C167.35732742 220.03188812 166.09624664 220.01201843 164.79695129 219.99154663 C163.42062556 219.97967025 162.04429797 219.96800739 160.66796875 219.95654297 C159.25976931 219.93783258 157.8515811 219.91825926 156.44340515 219.89785767 C152.73959977 219.84651654 149.03575804 219.80690162 145.33178711 219.76971436 C141.55117827 219.729687 137.7707185 219.67869587 133.99023438 219.62841797 C126.57427514 219.53059823 119.15843619 219.45110174 111.7421875 219.37060547 C111.7421875 206.17060547 111.7421875 192.97060547 111.7421875 179.37060547 C116.17140625 179.32162109 120.600625 179.27263672 125.1640625 179.22216797 C128.69751645 179.17762541 132.2309327 179.13113001 135.76434326 179.08331299 C139.49324924 179.0333863 143.22212538 178.98689472 146.95117188 178.94873047 C150.54339163 178.91183384 154.13537593 178.8654623 157.7273941 178.81254196 C159.09726071 178.79402121 160.46717774 178.77890466 161.83712006 178.76726151 C163.75707406 178.75036015 165.67689736 178.7201912 167.59667969 178.68945312 C168.68922058 178.67612946 169.78176147 178.66280579 170.90740967 178.64907837 C173.74758504 178.37007524 175.42142466 178.01743647 177.7421875 176.37060547 C178.9138242 173.0030036 178.9138242 173.0030036 178.7421875 169.37060547 C176.62987476 166.49442997 175.40943354 165.49114838 171.8694458 164.85162354 C170.75914001 164.84274109 169.64883423 164.83385864 168.50488281 164.82470703 C167.24387756 164.8049884 165.98287231 164.78526978 164.68365479 164.76495361 C163.31254114 164.76329058 161.94142691 164.76205965 160.5703125 164.76123047 C159.16353451 164.74624616 157.75677411 164.72951847 156.35003662 164.71112061 C152.65439031 164.66746192 148.95898129 164.64745166 145.26312256 164.63238525 C141.489076 164.61280853 137.71527913 164.57105514 133.94140625 164.53076172 C126.54150712 164.45338248 119.14270141 164.412991 111.7421875 164.37060547 C111.7421875 152.16060547 111.7421875 139.95060547 111.7421875 127.37060547 C116.41117188 127.32162109 121.08015625 127.27263672 125.890625 127.22216797 C128.84377205 127.18679363 131.79688915 127.15084063 134.75 127.11279297 C139.44006119 127.05242201 144.13008036 126.99422644 148.8203125 126.94873047 C152.60054983 126.91192777 156.38055941 126.86558204 160.16060257 126.81254196 C161.60469198 126.7939712 163.04883026 126.77887319 164.4929924 126.76726151 C166.51153813 126.75044555 168.52995938 126.72027441 170.54833984 126.68945312 C171.69861664 126.67612946 172.84889343 126.66280579 174.0340271 126.64907837 C176.89027678 126.64322909 176.89027678 126.64322909 178.7421875 124.37060547 C178.91722711 121.7186612 178.97388353 119.16988393 178.9375 116.51904297 C178.93548584 115.83302002 178.93347168 115.14699707 178.93139648 114.44018555 C178.92092508 111.8752576 178.89300246 109.31042488 178.8671875 106.74560547 C178.8259375 101.01185547 178.7846875 95.27810547 178.7421875 89.37060547 C156.6321875 89.04060547 134.5221875 88.71060547 111.7421875 88.37060547 C110.7521875 82.43060547 110.7521875 82.43060547 109.7421875 76.37060547 C106.26541228 70.68133692 102.52142605 65.88460551 95.8867836 63.78283787 C93.40297523 63.30540238 91.08376048 63.23031297 88.5536499 63.21238708 C87.50479614 63.20259827 86.45594238 63.19280945 85.37530518 63.182724 C84.2301947 63.17696854 83.08508423 63.17121307 81.90527344 63.1652832 C80.69524658 63.15538361 79.48521973 63.14548401 78.23852539 63.13528442 C74.92482364 63.10911948 71.61114569 63.08724805 68.29740429 63.06728244 C64.8327038 63.04539306 61.36804676 63.01801883 57.90338135 62.9912262 C51.3445012 62.94133919 44.78559689 62.89638558 38.22666955 62.85320383 C30.75873376 62.80379731 23.29084158 62.74889186 15.82294798 62.69352424 C0.46273479 62.57976549 -14.89751852 62.47291319 -30.2578125 62.37060547 C-30.38216971 56.14509217 -30.47250858 49.92031482 -30.5324707 43.69384766 C-30.55748825 41.57946158 -30.59151342 39.46516088 -30.63500977 37.35107422 C-30.69622582 34.29747355 -30.72415042 31.24502408 -30.74609375 28.19091797 C-30.77190018 27.25821075 -30.7977066 26.32550354 -30.82429504 25.36453247 C-30.82743195 17.88740403 -28.80067047 11.43830493 -23.81465149 5.71365356 C-16.93132705 -0.47278461 -8.68077379 -0.00201691 0 0 Z " fill="#F8FAFB" transform="translate(156.2578125,30.62939453125)"/>
<path d="M0 0 C0.89266658 -0.00453111 1.78533315 -0.00906223 2.70505023 -0.01373065 C5.6787255 -0.02633152 8.65221661 -0.02475706 11.62591553 -0.02310181 C13.76523574 -0.02908976 15.90455379 -0.03589592 18.04386902 -0.04345703 C23.84361442 -0.06109739 29.64330077 -0.0658116 35.44307041 -0.0670886 C39.0701337 -0.06851192 42.69718206 -0.07278495 46.32424164 -0.07808304 C58.98812307 -0.0965771 71.65196245 -0.10475446 84.31585693 -0.10317993 C96.10377023 -0.10197884 107.89150035 -0.12307662 119.6793673 -0.15466726 C129.8138236 -0.180855 139.94822017 -0.19154617 150.08271003 -0.19026911 C156.12936583 -0.1897602 162.1758588 -0.19540438 168.22248077 -0.21662521 C173.91234426 -0.23604945 179.60189025 -0.23610327 185.29176521 -0.22159195 C187.3733854 -0.21950794 189.45502568 -0.22418028 191.53661156 -0.23631287 C209.4740141 -0.3340437 223.55194559 2.33843686 237.11712646 15.07992554 C249.25410211 28.03596089 251.40990598 43.00254444 251.31256104 59.99179077 C251.31717767 61.75916525 251.32353568 63.52653588 251.33147001 65.29389858 C251.34808173 70.11940857 251.33995427 74.94459986 251.32752514 79.77011061 C251.31844341 84.98628812 251.33245982 90.20241232 251.34344482 95.4185791 C251.36120136 105.62477623 251.35740282 115.83085548 251.34579426 126.03705716 C251.33674893 134.33422387 251.3355407 142.63135761 251.33988953 150.92852783 C251.34050246 152.11086768 251.34111539 153.29320752 251.3417469 154.51137584 C251.34302584 156.91351741 251.34432269 159.31565896 251.34563726 161.7178005 C251.35703467 184.22571937 251.34394251 206.73357301 251.3224358 229.24148118 C251.3045656 248.54085207 251.30766994 267.8401267 251.32611084 287.13949585 C251.34753236 309.56864156 251.35593611 331.99773014 251.34366179 354.42688465 C251.34238763 356.82003084 251.34113015 359.21317704 251.33988953 361.60632324 C251.33896387 363.37238589 251.33896387 363.37238589 251.33801952 365.17412657 C251.33457047 373.45824111 251.34038537 381.74231931 251.34980774 390.02642822 C251.36104332 400.12641492 251.35795483 410.22627732 251.33668476 420.32624984 C251.32619542 425.47624789 251.32201646 430.62603893 251.33528137 435.77603531 C251.34725489 440.4961534 251.34056133 445.21587379 251.31937116 449.93595612 C251.31492605 451.63766786 251.31712398 453.33941363 251.32687432 455.04110324 C251.41615169 471.92581317 247.89939936 485.75533785 236.11712646 498.51742554 C226.13032112 507.92472574 213.97868077 512.75549336 200.3687439 512.65510559 C199.47436847 512.66049113 198.57999305 512.66587667 197.65851533 512.6714254 C194.69096175 512.68562064 191.72385957 512.67862221 188.75628662 512.67147827 C186.61667017 512.67718627 184.47705676 512.68415219 182.33744812 512.692276 C176.54605281 512.71017547 170.75480928 512.70904497 164.96339464 512.70333362 C160.12010819 512.70023697 155.27685069 512.70633956 150.43356836 512.71237236 C139.0031933 512.7264056 127.572893 512.72486642 116.14251709 512.71347046 C104.36932157 512.70199174 92.59635392 512.71606367 80.82318842 512.74286693 C70.69717676 512.76505299 60.57123647 512.77165471 50.44520223 512.76579052 C44.40529317 512.76242657 38.36553014 512.76479877 32.32564163 512.78204155 C26.64394489 512.79755471 20.96258462 512.79350646 15.28090096 512.7747364 C13.20250956 512.77106257 11.12409299 512.77412357 9.04572487 512.78462219 C-8.47444803 512.86632778 -23.09998182 510.24678811 -36.54302979 498.00570679 C-47.25740977 486.73407773 -51.37204548 473.0889297 -51.30889893 457.86557007 C-51.30904495 456.93810471 -51.30919098 456.01063934 -51.30934143 455.05506897 C-51.30864731 452.00343449 -51.30087837 448.9518618 -51.29302979 445.90023804 C-51.29116383 443.77889031 -51.28974076 441.65754216 -51.28874207 439.53619385 C-51.28493089 433.96313276 -51.27511255 428.39009788 -51.26403809 422.81704712 C-51.25379387 417.12603103 -51.249238 411.43501069 -51.24420166 405.74398804 C-51.23348902 394.58512052 -51.21590355 383.42627931 -51.19537354 372.26742554 C-40.96537354 372.26742554 -30.73537354 372.26742554 -20.19537354 372.26742554 C-20.18079102 374.97695435 -20.1662085 377.68648315 -20.15118408 380.4781189 C-20.10074812 389.45082488 -20.03413714 398.42335896 -19.95965862 407.39589596 C-19.91501489 412.83360741 -19.87574549 418.27124497 -19.84893799 423.70907593 C-19.82284528 428.961194 -19.78240056 434.21302683 -19.73218727 439.46496773 C-19.7155589 441.46428429 -19.70401961 443.46365014 -19.69775963 445.46302605 C-19.68807465 448.27304555 -19.65996309 451.08234187 -19.62774658 453.8921814 C-19.62918167 454.71074112 -19.63061676 455.52930084 -19.63209534 456.37266541 C-19.52960169 462.73295193 -18.5626818 469.28494668 -14.51177979 474.38851929 C-13.93299072 474.82293335 -13.35420166 475.25734741 -12.75787354 475.70492554 C-12.1816626 476.15738647 -11.60545166 476.60984741 -11.01177979 477.07601929 C-10.41236572 477.46918335 -9.81295166 477.86234741 -9.19537354 478.26742554 C-8.67115185 478.61648264 -8.14693016 478.96553974 -7.60682297 479.32517433 C-4.05619361 480.71254939 -0.5531606 480.54939797 3.20422363 480.53485107 C4.48720239 480.54164774 4.48720239 480.54164774 5.7960999 480.54858172 C8.6671608 480.56125959 11.53803283 480.55960316 14.40911865 480.55795288 C16.46567021 480.56393609 18.52221953 480.57074115 20.57876587 480.57830811 C26.16980892 480.59599824 31.76079077 480.60066481 37.35185909 480.60193968 C42.01875877 480.60383778 46.68564416 480.61119445 51.35253835 480.61828387 C62.36456986 480.63457752 73.37656866 480.639452 84.38861084 480.63803101 C95.74708701 480.63682988 107.10537308 480.65792382 118.46380115 480.68951833 C128.21510295 480.71567568 137.96634265 480.7263985 147.71767926 480.72512019 C153.54182185 480.72461032 159.36579561 480.73030716 165.18990326 480.75147629 C170.66958676 480.77084894 176.14894023 480.77098958 181.62863541 480.75644302 C183.63775489 480.75435251 185.64689498 480.75907023 187.65597916 480.77116394 C190.40340442 480.7866283 193.14969347 480.77730038 195.89709473 480.76190186 C197.08369662 480.77733254 197.08369662 480.77733254 198.29427028 480.79307497 C204.60570413 480.71515286 210.03802331 478.94592031 214.64447021 474.48617554 C215.00669678 473.91898804 215.36892334 473.35180054 215.74212646 472.76742554 C216.1223999 472.20023804 216.50267334 471.63305054 216.89447021 471.04867554 C219.02024024 466.88837024 218.93232958 462.8710191 218.93884754 458.25390244 C218.94119977 457.54425526 218.943552 456.83460808 218.94597551 456.10345644 C218.95265944 453.71341571 218.95220747 451.32342942 218.95179749 448.93338013 C218.95509647 447.20733725 218.95882212 445.48129515 218.96293896 443.75525403 C218.97296286 439.00247575 218.97667638 434.24971009 218.97932827 429.49692273 C218.98323009 424.37476899 218.99280843 419.25262526 219.00154114 414.13047791 C219.02130757 401.75677018 219.03137136 389.38306164 219.04026893 377.00934207 C219.04465098 371.18461547 219.05001795 365.35988977 219.0552578 359.53516388 C219.0722692 340.17709415 219.08676438 320.819025 219.09400654 301.46094894 C219.09591648 296.43696848 219.0978368 291.41298802 219.09979248 286.38900757 C219.10027622 285.14030047 219.10075996 283.89159337 219.10125836 282.60504666 C219.10956245 262.36721614 219.13490616 242.12944465 219.16737316 221.89163992 C219.20042248 201.12184554 219.21845332 180.35208119 219.22165078 159.58226037 C219.2238177 147.91750188 219.23259309 136.25282951 219.25811195 124.58809662 C219.27978977 114.65611614 219.2878837 104.7242427 219.27814517 94.79224125 C219.2735922 89.72392177 219.27554466 84.65582329 219.29490662 79.58753395 C219.3124796 74.94752142 219.31158834 70.30789207 219.29600932 65.6678758 C219.29362434 63.9895284 219.2980028 62.31115488 219.30983797 60.63284752 C219.49097857 48.86588729 219.49097857 48.86588729 214.80462646 38.26742554 C213.11152833 36.41229739 213.11152833 36.41229739 211.24212646 35.32992554 C210.37394287 34.75951538 210.37394287 34.75951538 209.48822021 34.17758179 C203.84732494 31.12809548 197.1597581 31.96672811 190.91864014 31.91732788 C189.39309375 31.90082149 187.867623 31.87360147 186.34246826 31.83529663 C175.15129798 31.3074538 175.15129798 31.3074538 165.24920654 35.85873413 C161.38235781 39.62951615 159.14479797 43.36150898 156.92962646 48.26742554 C154.47040174 53.32249858 152.49823641 56.20637557 147.80462646 59.26742554 C147.25522903 59.63043259 146.7058316 59.99343964 146.13978577 60.3674469 C142.67022243 61.70462886 139.23341541 61.55374684 135.56707764 61.54208374 C134.73893051 61.54719467 133.91078339 61.5523056 133.05754089 61.55757141 C130.32081872 61.57146678 127.58434847 61.57051034 124.84759521 61.56820679 C122.94193936 61.57209445 121.03628436 61.57642926 119.13063049 61.58119202 C115.1351338 61.58865462 111.13972546 61.58836316 107.14422607 61.58309937 C102.03311639 61.57731217 96.92236996 61.59421742 91.8113203 61.61744404 C87.87441404 61.6322047 83.9375947 61.63304977 80.00066566 61.62993431 C78.1168782 61.6304466 76.23308575 61.63566689 74.34932518 61.64574623 C71.70943279 61.65813516 69.07024076 61.6513038 66.43035889 61.63973999 C65.27129028 61.6512056 65.27129028 61.6512056 64.08880615 61.66290283 C57.73700041 61.60165741 53.12134114 60.17669475 48.11712646 56.05258179 C44.9561977 52.24558481 42.97741354 48.14346453 40.84368896 43.70687866 C38.33852077 38.72159395 35.7197604 35.68994176 30.58123779 33.1824646 C25.44080678 31.48842297 19.98690345 31.93502396 14.62225342 31.95175171 C12.50868617 31.95490086 10.39653555 31.93146503 8.28314209 31.90609741 C-3.92664619 31.7958503 -3.92664619 31.7958503 -14.00787354 38.01742554 C-18.75634259 45.07229385 -19.6507868 50.43968272 -19.70709229 58.79476929 C-19.73401909 60.27814537 -19.73401909 60.27814537 -19.76148987 61.79148865 C-19.81538159 64.92925844 -19.84942092 68.06687796 -19.88287354 71.20492554 C-19.91606524 73.34101406 -19.9505566 75.47708281 -19.98638916 77.61312866 C-20.07109561 82.83109279 -20.13953438 88.0490769 -20.19537354 93.26742554 C-19.24645815 93.26327747 -19.24645815 93.26327747 -18.27837276 93.2590456 C-2.87069493 93.19273217 12.53693312 93.14311894 27.94471836 93.11198902 C35.395876 93.09653388 42.84693826 93.07547034 50.29803467 93.04110718 C56.7939973 93.01116326 63.28989083 92.9918407 69.78592056 92.98516005 C73.22410795 92.98125621 76.66209771 92.97211016 80.10022163 92.95023537 C83.94256359 92.92598807 87.7847139 92.92545875 91.62713623 92.92684937 C92.76146088 92.91606354 93.89578552 92.90527771 95.06448364 92.89416504 C103.77370951 92.92827477 109.69274278 94.57616199 116.23040771 100.54086304 C127.02215618 112.37697426 122.80462646 133.79115749 122.80462646 147.26742554 C48.22462646 147.59742554 -26.35537354 147.92742554 -103.19537354 148.26742554 C-103.19537354 106.55271783 -103.19537354 106.55271783 -95.93756104 98.77133179 C-89.49900408 93.21338464 -82.42879219 92.13451737 -74.14459229 92.16976929 C-73.48578568 92.17118423 -72.82697906 92.17259918 -72.14820862 92.17405701 C-70.05971591 92.17962054 -67.97133342 92.19216607 -65.88287354 92.20492554 C-64.46034905 92.20994526 -63.03782287 92.21450734 -61.61529541 92.21859741 C-58.14195277 92.22957796 -54.66867392 92.24681718 -51.19537354 92.26742554 C-51.20203537 91.7052533 -51.2086972 91.14308105 -51.21556091 90.56387329 C-51.2824651 84.65798726 -51.32740008 78.75221068 -51.36016846 72.84603882 C-51.37515893 70.64840311 -51.3955582 68.45079682 -51.42169189 66.25326538 C-51.64088418 47.333963 -50.9678368 29.72049912 -37.17584229 15.07601929 C-26.34857574 5.18839718 -14.63002529 -0.05521636 0 0 Z " fill="#8D9CA8" transform="translate(146.19537353515625,-0.267425537109375)"/>
<path d="M0 0 C0.81946232 -0.00170885 1.63892464 -0.0034177 2.48321915 -0.00517833 C5.20854905 -0.00845294 7.93362862 0.00249677 10.65893555 0.01345825 C12.6206817 0.01402281 14.58242828 0.01370494 16.54417419 0.01257324 C21.85555178 0.01200045 27.16683865 0.02374289 32.47819519 0.03772116 C38.0342055 0.05024076 43.59021799 0.05139999 49.14624023 0.05377197 C59.66099451 0.05998312 70.1757071 0.07638902 80.69044304 0.09647095 C92.66379275 0.1188413 104.63714446 0.12982624 116.61050987 0.13986182 C141.23474856 0.16075555 165.85894733 0.19632828 190.4831543 0.24050903 C190.4831543 10.14050903 190.4831543 20.04050903 190.4831543 30.24050903 C194.1131543 30.24050903 197.7431543 30.24050903 201.4831543 30.24050903 C201.4831543 30.57050903 201.4831543 30.90050903 201.4831543 31.24050903 C200.22825195 31.24667236 200.22825195 31.24667236 198.94799805 31.25296021 C195.80887369 31.28011902 192.6710499 31.32939048 189.5324707 31.39309692 C187.52015409 31.42737871 185.50746211 31.43671679 183.49487305 31.44558716 C175.92808898 31.61669534 170.19560132 31.96356906 164.4831543 37.24050903 C161.29642412 40.58818518 159.50108522 44.04825524 157.6081543 48.24050903 C155.14892957 53.29558208 153.17676424 56.17945907 148.4831543 59.24050903 C147.93375687 59.60351608 147.38435944 59.96652313 146.8183136 60.3405304 C143.34875026 61.67771235 139.91194324 61.52683034 136.24560547 61.51516724 C135.41745834 61.52027817 134.58931122 61.5253891 133.73606873 61.53065491 C130.99934655 61.54455027 128.26287631 61.54359384 125.52612305 61.54129028 C123.62046719 61.54517794 121.7148122 61.54951276 119.80915833 61.55427551 C115.81366163 61.56173812 111.81825329 61.56144666 107.82275391 61.55618286 C102.71164422 61.55039566 97.60089779 61.56730091 92.48984814 61.59052753 C88.55294187 61.60528819 84.61612254 61.60613327 80.6791935 61.60301781 C78.79540603 61.60353009 76.91161358 61.60875039 75.02785301 61.61882973 C72.38796062 61.63121866 69.74876859 61.62438729 67.10888672 61.61282349 C65.94981812 61.62428909 65.94981812 61.62428909 64.76733398 61.63598633 C58.41552824 61.5747409 53.79986897 60.14977825 48.7956543 56.02566528 C45.63472553 52.2186683 43.65594138 48.11654802 41.5222168 43.67996216 C39.0170486 38.69467744 36.39828823 35.66302525 31.25976562 33.1555481 C26.11933461 31.46150647 20.66543128 31.90810746 15.30078125 31.92483521 C13.187214 31.92798436 11.07506338 31.90454853 8.96166992 31.87918091 C-3.24811835 31.76893379 -3.24811835 31.76893379 -13.3293457 37.99050903 C-18.07781476 45.04537735 -18.97225897 50.41276622 -19.02856445 58.76785278 C-19.05549126 60.25122887 -19.05549126 60.25122887 -19.08296204 61.76457214 C-19.13685376 64.90234194 -19.17089309 68.03996145 -19.2043457 71.17800903 C-19.23753741 73.31409756 -19.27202877 75.4501663 -19.30786133 77.58621216 C-19.39256778 82.80417629 -19.46100655 88.02216039 -19.5168457 93.24050903 C-18.56793032 93.23636096 -18.56793032 93.23636096 -17.59984493 93.2321291 C-2.1921671 93.16581566 13.21546095 93.11620244 28.62324619 93.08507252 C36.07440383 93.06961737 43.52546609 93.04855384 50.9765625 93.01419067 C57.47252513 92.98424675 63.96841866 92.9649242 70.46444839 92.95824355 C73.90263579 92.95433971 77.34062554 92.94519366 80.77874947 92.92331886 C84.62109142 92.89907157 88.46324173 92.89854225 92.30566406 92.89993286 C93.43998871 92.88914703 94.57431335 92.87836121 95.74301147 92.86724854 C104.45223734 92.90135826 110.37127061 94.54924549 116.90893555 100.51394653 C127.70068401 112.35005776 123.4831543 133.76424099 123.4831543 147.24050903 C48.9031543 147.57050903 -25.6768457 147.90050903 -102.5168457 148.24050903 C-102.5168457 106.52580132 -102.5168457 106.52580132 -95.2590332 98.74441528 C-88.82047625 93.18646814 -81.75026436 92.10760087 -73.46606445 92.14285278 C-72.80725784 92.14426773 -72.14845123 92.14568268 -71.46968079 92.1471405 C-69.38118808 92.15270403 -67.29280559 92.16524957 -65.2043457 92.17800903 C-63.78182122 92.18302876 -62.35929504 92.18759083 -60.93676758 92.19168091 C-57.46342494 92.20266146 -53.99014609 92.21990068 -50.5168457 92.24050903 C-50.52350754 91.67833679 -50.53016937 91.11616455 -50.53703308 90.53695679 C-50.60393727 84.63107076 -50.64887225 78.72529418 -50.68164062 72.81912231 C-50.6966311 70.62148661 -50.71703037 68.42388032 -50.74316406 66.22634888 C-50.96235634 47.3070465 -50.28930897 29.69358261 -36.49731445 15.04910278 C-25.96204025 5.42813245 -14.29795149 -0.11091315 0 0 Z " fill="#9FACBA" transform="translate(145.516845703125,-0.240509033203125)"/>
<path d="M0 0 C15.85189276 -0.12032643 15.85189276 -0.12032643 22.60351562 -0.14648438 C27.21242621 -0.16442529 31.82115818 -0.18566025 36.42993164 -0.22631836 C40.14521429 -0.25888946 43.86030544 -0.27684817 47.57571983 -0.28463173 C48.99393415 -0.29017934 50.41213787 -0.30101244 51.83027077 -0.31719017 C53.81488467 -0.3389319 55.79969086 -0.34022513 57.78442383 -0.34057617 C59.47986076 -0.35056892 59.47986076 -0.35056892 61.20954895 -0.36076355 C64 0 64 0 65.86421204 1.31364441 C67.74008819 4.0988423 67.42669714 7.16299937 67.3984375 10.40625 C67.40130768 11.12735962 67.40417786 11.84846924 67.40713501 12.59143066 C67.40917452 14.11450995 67.40365247 15.6376155 67.39111328 17.16064453 C67.37505643 19.49180678 67.3909641 21.82123542 67.41015625 24.15234375 C67.4081738 25.63281633 67.40433007 27.11328782 67.3984375 28.59375 C67.40451019 29.2906897 67.41058289 29.98762939 67.4168396 30.70568848 C67.34744151 35.48151888 67.34744151 35.48151888 65.86994934 37.68635559 C63.13365643 39.60860867 61.01451477 39.35985212 57.69262695 39.34057617 C56.39150467 39.34034958 55.09038239 39.34012299 53.74983215 39.33988953 C52.3293117 39.32456952 50.90879474 39.30892153 49.48828125 39.29296875 C48.03525734 39.28737276 46.58222776 39.28310267 45.12919617 39.28010559 C41.30679671 39.26865695 37.4847398 39.23918999 33.66247559 39.20599365 C29.07534616 39.16989422 24.48810213 39.15613166 19.90087128 39.13863373 C12.93367602 39.10955221 5.96723222 39.05206622 -1 39 C-1 51.21 -1 63.42 -1 76 C5.73470703 75.91298828 5.73470703 75.91298828 12.60546875 75.82421875 C16.1907049 75.79205254 19.77590014 75.7649428 23.36119843 75.74124908 C27.1431942 75.71487004 30.92462765 75.67963532 34.70629883 75.62280273 C38.35030481 75.56838319 41.99376631 75.53855914 45.63814735 75.52561378 C47.02685427 75.51639143 48.41553215 75.49838147 49.80400658 75.47134972 C51.75209744 75.43493929 53.70073891 75.43295661 55.64916992 75.43237305 C56.7572551 75.42126999 57.86534027 75.41016693 59.00700378 75.39872742 C63.00556774 76.20201172 64.51474045 77.83163945 67 81 C67.125 84.625 67.125 84.625 66 88 C62.24585639 90.91089331 59.42537362 91.3691978 54.7409668 91.34057617 C52.87960335 91.34023628 52.87960335 91.34023628 50.9806366 91.33988953 C49.63682693 91.32457212 48.29302099 91.30892417 46.94921875 91.29296875 C45.5663143 91.28736898 44.18340388 91.28310068 42.80049133 91.28010559 C39.17210269 91.26868664 35.54407801 91.2392455 31.91583252 91.20599365 C28.20891328 91.17522873 24.50193312 91.16142188 20.79492188 91.14648438 C13.52962715 91.11596648 6.26533007 91.05724071 -1 91 C-1 104.2 -1 117.4 -1 131 C5.73470703 130.91298828 5.73470703 130.91298828 12.60546875 130.82421875 C16.1907049 130.79205254 19.77590014 130.7649428 23.36119843 130.74124908 C27.1431942 130.71487004 30.92462765 130.67963532 34.70629883 130.62280273 C38.35030481 130.56838319 41.99376631 130.53855914 45.63814735 130.52561378 C47.02685427 130.51639143 48.41553215 130.49838147 49.80400658 130.47134972 C51.75209744 130.43493929 53.70073891 130.43295661 55.64916992 130.43237305 C56.7572551 130.42126999 57.86534027 130.41016693 59.00700378 130.39872742 C63.00578058 131.20205448 64.51735769 132.82910825 67 136 C67.0625 139.625 67.0625 139.625 66 143 C63.71416528 145.30366355 62.36836228 145.95374047 59.1272583 146.36076355 C57.46179962 146.3507708 57.46179962 146.3507708 55.76269531 146.34057617 C54.50169006 146.34034958 53.24068481 146.34012299 51.94146729 146.33988953 C50.57034956 146.32457082 49.19923548 146.30892285 47.828125 146.29296875 C46.42137098 146.28737086 45.01461109 146.28310167 43.60784912 146.28010559 C39.91204576 146.26867185 36.21659821 146.2392178 32.52093506 146.20599365 C28.74707947 146.17526077 24.97316446 146.16142887 21.19921875 146.14648438 C13.79916531 146.1159393 6.4000879 146.05721717 -1 146 C-1 159.53 -1 173.06 -1 187 C5.73470703 186.91298828 5.73470703 186.91298828 12.60546875 186.82421875 C16.1907049 186.79205254 19.77590014 186.7649428 23.36119843 186.74124908 C27.1431942 186.71487004 30.92462765 186.67963532 34.70629883 186.62280273 C38.35030481 186.56838319 41.99376631 186.53855914 45.63814735 186.52561378 C47.02685427 186.51639143 48.41553215 186.49838147 49.80400658 186.47134972 C51.75209744 186.43493929 53.70073891 186.43295661 55.64916992 186.43237305 C56.7572551 186.42126999 57.86534027 186.41016693 59.00700378 186.39872742 C63.00556774 187.20201172 64.51474045 188.83163945 67 192 C67.125 195.625 67.125 195.625 66 199 C62.24585639 201.91089331 59.42537362 202.3691978 54.7409668 202.34057617 C52.87960335 202.34023628 52.87960335 202.34023628 50.9806366 202.33988953 C49.63682693 202.32457212 48.29302099 202.30892417 46.94921875 202.29296875 C45.5663143 202.28736898 44.18340388 202.28310068 42.80049133 202.28010559 C39.17210269 202.26868664 35.54407801 202.2392455 31.91583252 202.20599365 C28.20891238 202.17522872 24.50193306 202.16158659 20.79492188 202.14648438 C13.52978253 202.11437241 6.26494239 202.06321247 -1 202 C-0.97643433 203.39907593 -0.97643433 203.39907593 -0.95239258 204.82641602 C-0.90102019 208.31345264 -0.86353231 211.8000824 -0.83520508 215.28735352 C-0.82019278 216.79165017 -0.79977647 218.29590361 -0.77368164 219.80004883 C-0.73696184 221.97227696 -0.72019839 224.14392251 -0.70703125 226.31640625 C-0.6913208 227.62037354 -0.67561035 228.92434082 -0.65942383 230.26782227 C-1.16202 235.77548364 -3.08025993 240.41876032 -6.6875 244.6875 C-7.12449219 245.22761719 -7.56148437 245.76773438 -8.01171875 246.32421875 C-15.01703527 252.2285032 -21.47984449 252.56616583 -30.29101562 252.45410156 C-31.50162659 252.45468567 -32.71223755 252.45526978 -33.95953369 252.45587158 C-37.25675163 252.45357318 -40.5532779 252.43360509 -43.85035896 252.40557575 C-47.30430177 252.38045815 -50.75826023 252.37821199 -54.21228027 252.37347412 C-60.74284771 252.36107457 -67.27314519 252.32829439 -73.80359411 252.28807616 C-81.97317746 252.23886248 -90.14280527 252.21705883 -98.3125 252.1953125 C-112.87520994 252.15642873 -127.43733137 252.07628872 -142 252 C-142 282.36 -142 312.72 -142 344 C-142.33 344 -142.66 344 -143 344 C-143 313.97 -143 283.94 -143 253 C-163.37316751 253.11853829 -163.37316751 253.11853829 -183.74609375 253.27026367 C-186.30989202 253.27902974 -188.87369447 253.28667339 -191.4375 253.29296875 C-193.4165332 253.3159906 -193.4165332 253.3159906 -195.43554688 253.33947754 C-204.99431729 253.34218899 -212.20872222 252.38567897 -219.4609375 245.74609375 C-224.07466365 240.51173947 -226.14780091 234.20977592 -226.125 227.3125 C-226.12757813 226.52488281 -226.13015625 225.73726562 -226.1328125 224.92578125 C-226 223 -226 223 -225 222 C-222.63337511 221.89440794 -220.29549546 221.85395162 -217.92803955 221.85523987 C-217.17933932 221.85171302 -216.43063909 221.84818618 -215.65925097 221.84455246 C-213.13122633 221.83381272 -210.60323928 221.83017536 -208.07519531 221.82641602 C-206.27037393 221.82011471 -204.46555412 221.81334939 -202.66073608 221.80615234 C-198.76417617 221.79145181 -194.86762238 221.77973946 -190.97104645 221.77020454 C-184.81145894 221.75479028 -178.6519234 221.73084082 -172.49237061 221.70530701 C-154.97346273 221.63400442 -137.4545248 221.57432616 -119.93554688 221.52319336 C-110.26760811 221.49489974 -100.59972076 221.45952172 -90.93183589 221.41653961 C-84.80740559 221.38974235 -78.68303351 221.37185213 -72.55855608 221.36050236 C-68.74737025 221.35138134 -64.93625509 221.33402145 -61.12511063 221.31432343 C-59.35663335 221.30684476 -57.58813796 221.30276667 -55.81964493 221.30232811 C-53.4062545 221.3012463 -50.99322398 221.28800494 -48.57989502 221.27174377 C-47.52886278 221.27566906 -47.52886278 221.27566906 -46.45659757 221.27967364 C-41.53566897 221.22784634 -37.896108 220.75148423 -34.21242046 217.34876633 C-32.52133422 214.07270283 -32.57688627 211.02144064 -32.60127258 207.41973877 C-32.59462576 206.65269678 -32.58797893 205.88565479 -32.58113068 205.0953691 C-32.56246805 202.52340572 -32.56510812 199.95190621 -32.56762695 197.37988281 C-32.55861178 195.536945 -32.54828516 193.6940132 -32.53674316 191.85108948 C-32.50911834 186.8452719 -32.4998812 181.83956791 -32.49388909 176.83368397 C-32.48451969 171.60324903 -32.45831749 166.37289944 -32.43388367 161.14251709 C-32.39017548 151.23682113 -32.36165504 141.33114169 -32.33856028 131.42537856 C-32.31153176 120.14854689 -32.26761881 108.87180088 -32.22227156 97.59503031 C-32.12936341 74.39673145 -32.05830985 51.19840939 -32 28 C-21.44 28 -10.88 28 0 28 C0 18.76 0 9.52 0 0 Z " fill="#D8E6EB" transform="translate(269,119)"/>
<path d="M0 0 C5.21705452 3.15449808 7.2291952 7.32926572 9 13 C9.55550719 17.25387469 9.54910133 21.45786443 9.52139282 25.74342346 C9.52904392 27.00572546 9.53669501 28.26802747 9.54457796 29.56858104 C9.56506 33.05197164 9.56079469 36.53494876 9.55221677 40.01837265 C9.5472677 43.78342648 9.56532899 47.54838261 9.58029175 51.31340027 C9.60575327 58.68299869 9.60937693 66.05245125 9.60469122 73.42208625 C9.60111961 79.41717428 9.60463543 85.41221818 9.61314011 91.40730095 C9.61492567 92.68908546 9.61492567 92.68908546 9.61674731 93.99676461 C9.61917094 95.73300911 9.62159921 97.4692536 9.62403207 99.20549809 C9.64577229 115.47954563 9.6414642 131.75351024 9.62926237 148.02756243 C9.61893458 162.88929691 9.64140872 177.75076878 9.67945881 192.61245132 C9.71828465 207.89512601 9.73471494 223.1776767 9.72721231 238.460401 C9.72339741 247.03124533 9.72827283 255.60186645 9.75664139 264.17267036 C9.78055996 271.47264261 9.78317868 278.7722544 9.75906105 286.07223202 C9.7473441 289.7908753 9.74491207 293.50886084 9.76906586 297.22745895 C9.86019145 312.275647 9.80144777 325.30978968 3 339 C2.080156 341.31292308 1.17651756 343.63242829 0.296875 345.9609375 C-0.55034376 348.09964826 -1.3992739 350.23768195 -2.25 352.375 C-2.683125 353.4784375 -3.11625 354.581875 -3.5625 355.71875 C-3.98015625 356.76804687 -4.3978125 357.81734375 -4.828125 358.8984375 C-5.1984082 359.83349121 -5.56869141 360.76854492 -5.95019531 361.73193359 C-7 364 -7 364 -9 366 C-11.39379883 366.10571289 -11.39379883 366.10571289 -14 365 C-15.51100215 362.4001506 -16.61469502 360.08267149 -17.69921875 357.30859375 C-18.02034134 356.52992447 -18.34146393 355.75125519 -18.6723175 354.94898987 C-19.3493435 353.29742191 -20.01701676 351.64199381 -20.67602539 349.9831543 C-21.67688765 347.4642089 -22.70364345 344.9572159 -23.73632812 342.45117188 C-24.3921824 340.84177962 -25.04652719 339.23177124 -25.69921875 337.62109375 C-26.0013176 336.87806503 -26.30341644 336.13503632 -26.6146698 335.36949158 C-26.89869156 334.65257645 -27.18271332 333.93566132 -27.4753418 333.19702148 C-27.84576851 332.26888893 -27.84576851 332.26888893 -28.22367859 331.32200623 C-30.82617035 323.53785655 -31.2873112 316.65891573 -31.26069641 308.48158264 C-31.26452196 307.23153031 -31.26834751 305.98147798 -31.27228898 304.69354528 C-31.28254149 301.24008215 -31.28039422 297.78672316 -31.27610838 294.3332516 C-31.27363618 290.60243089 -31.28266141 286.87163494 -31.29014587 283.14082336 C-31.3028808 275.83830179 -31.3046881 268.53581701 -31.30234561 261.23328621 C-31.30056108 255.29676487 -31.30231499 249.36025467 -31.30657005 243.42373466 C-31.30716524 242.57815655 -31.30776043 241.73257844 -31.30837366 240.86137674 C-31.30958543 239.1434786 -31.31079957 237.42558045 -31.31201603 235.7076823 C-31.32288675 219.60555227 -31.32073119 203.5034432 -31.31463119 187.40131199 C-31.30946146 172.677127 -31.32071977 157.95300815 -31.33972941 143.22883625 C-31.35911005 128.10105725 -31.36736347 112.97330954 -31.36360615 97.84551805 C-31.36169458 89.35599016 -31.36417749 80.86651857 -31.37832069 72.37700081 C-31.39023828 65.1504542 -31.39163508 57.92399857 -31.37953053 50.6974507 C-31.37364472 47.01226108 -31.37253408 43.32723784 -31.38453293 39.64205933 C-31.39740209 35.64304157 -31.3869204 31.64441924 -31.3742218 27.645401 C-31.38159609 26.48644335 -31.38897037 25.32748571 -31.39656812 24.13340813 C-31.34464942 16.36056353 -30.2904448 9.96423138 -26.375 3.1875 C-18.52311698 -4.04449752 -9.37974795 -4.95533854 0 0 Z " fill="#D9E7EC" transform="translate(460,75)"/>
<path d="M0 0 C1.72161173 0.00393375 1.72161173 0.00393375 3.4780035 0.00794697 C5.3506933 0.01988228 5.3506933 0.01988228 7.26121521 0.03205872 C8.59749728 0.0369322 9.93378116 0.04132854 11.27006626 0.04528332 C14.12169366 0.05451431 16.9732878 0.06668352 19.82489395 0.08103561 C24.17205639 0.10241999 28.51920696 0.11414494 32.8664093 0.12376404 C50.89948875 0.16588192 68.93241443 0.24664841 86.96530819 0.33735371 C96.02096392 0.38259351 105.07657588 0.42203612 114.13230896 0.44807434 C122.12060067 0.47105164 130.1087691 0.5043959 138.09696299 0.55034035 C142.30034688 0.57417541 146.50361001 0.59297052 150.70705986 0.5992527 C154.63831897 0.60529985 158.56926227 0.62528546 162.50040436 0.65591431 C163.93748088 0.66468329 165.37459864 0.66841947 166.81170082 0.66664696 C176.97797621 0.65806648 183.96441515 1.3526936 191.66136169 8.37507629 C202.45311016 20.21118752 198.23558044 41.62537075 198.23558044 55.10163879 C123.65558044 55.43163879 49.07558044 55.76163879 -27.76441956 56.10163879 C-27.76441956 14.38693108 -27.76441956 14.38693108 -20.50660706 6.60554504 C-14.51042525 1.42946882 -7.76291086 -0.03513429 0 0 Z " fill="#FD4755" transform="translate(70.76441955566406,91.89836120605469)"/>
<path d="M0 0 C2.10499269 -0.00436922 4.20787782 -0.04073205 6.3125 -0.07861328 C20.06408061 -0.19977438 20.06408061 -0.19977438 25.7421875 4.37060547 C30.6164746 9.2790741 33.01513555 14.88588663 35.80078125 21.12841797 C38.22227884 25.17236767 40.94386977 27.38514376 45.4175415 28.96060181 C48.91981126 29.57830593 52.4184183 29.54404378 55.96386719 29.56347656 C56.79040802 29.57165405 57.61694885 29.57983154 58.46853638 29.58825684 C61.20037116 29.61304249 63.93215421 29.62960943 66.6640625 29.64404297 C67.59920937 29.64936665 68.53435623 29.65469032 69.49784088 29.66017532 C74.44777099 29.68687737 79.39767613 29.70626159 84.34765625 29.72070312 C88.4370766 29.73404014 92.52599771 29.76189265 96.61523438 29.80273438 C101.56065213 29.85212168 106.50561724 29.87683147 111.45127106 29.88393021 C113.3314839 29.89063054 115.21168713 29.90582081 117.09175873 29.92982101 C119.72934676 29.96157032 122.36519941 29.96149507 125.00292969 29.95410156 C125.77204681 29.9705069 126.54116394 29.98691223 127.33358765 30.0038147 C133.20354821 29.93681842 137.18329437 28.04684177 141.7421875 24.37060547 C143.91455414 21.70169789 145.40896791 19.09494451 146.84375 15.97607422 C150.40768432 8.30786714 154.16206291 4.16066776 161.7421875 0.37060547 C167.6821875 0.37060547 173.6221875 0.37060547 179.7421875 0.37060547 C179.7421875 30.07060547 179.7421875 59.77060547 179.7421875 90.37060547 C178.7521875 90.04060547 177.7621875 89.71060547 176.7421875 89.37060547 C174.64189965 89.2531177 172.53819302 89.19376222 170.43481445 89.1652832 C169.13369217 89.14533798 167.83256989 89.12539276 166.49201965 89.10484314 C165.0715039 89.08786001 163.6509869 89.07098116 162.23046875 89.05419922 C160.77743444 89.0336241 159.32440604 89.01262747 157.87138367 88.9912262 C154.0491922 88.93606313 150.22694724 88.88662849 146.40466309 88.83837891 C142.50345098 88.78812175 138.60231645 88.73245769 134.70117188 88.67724609 C127.04824281 88.56973505 119.39524917 88.46827449 111.7421875 88.37060547 C111.6297168 87.5565625 111.51724609 86.74251953 111.40136719 85.90380859 C111.24055664 84.83066406 111.07974609 83.75751953 110.9140625 82.65185547 C110.68348145 81.05954102 110.68348145 81.05954102 110.44824219 79.43505859 C109.04607771 73.34931566 105.42339012 69.68194351 100.6171875 65.93310547 C96.48955654 63.68982777 93.2224272 63.24546547 88.5536499 63.21238708 C87.50479614 63.20259827 86.45594238 63.19280945 85.37530518 63.182724 C84.2301947 63.17696854 83.08508423 63.17121307 81.90527344 63.1652832 C80.69524658 63.15538361 79.48521973 63.14548401 78.23852539 63.13528442 C74.92482364 63.10911948 71.61114569 63.08724805 68.29740429 63.06728244 C64.8327038 63.04539306 61.36804676 63.01801883 57.90338135 62.9912262 C51.3445012 62.94133919 44.78559689 62.89638558 38.22666955 62.85320383 C30.75873376 62.80379731 23.29084158 62.74889186 15.82294798 62.69352424 C0.46273479 62.57976549 -14.89751852 62.47291319 -30.2578125 62.37060547 C-30.38216971 56.14509217 -30.47250858 49.92031482 -30.5324707 43.69384766 C-30.55748825 41.57946158 -30.59151342 39.46516088 -30.63500977 37.35107422 C-30.69622582 34.29747355 -30.72415042 31.24502408 -30.74609375 28.19091797 C-30.77190018 27.25821075 -30.7977066 26.32550354 -30.82429504 25.36453247 C-30.82743195 17.88740403 -28.80067047 11.43830493 -23.81465149 5.71365356 C-16.93132705 -0.47278461 -8.68077379 -0.00201691 0 0 Z " fill="#FEFEFE" transform="translate(156.2578125,30.62939453125)"/>
<path d="M0 0 C0.22943361 40.84999675 0.40537187 81.69990877 0.51065329 122.55042234 C0.52315873 127.38509706 0.53610211 132.21977052 0.54931641 137.05444336 C0.55325106 138.4980455 0.55325106 138.4980455 0.55726521 139.97081131 C0.60064969 155.50611675 0.67942318 171.04104802 0.77152796 186.57613229 C0.86540394 202.54443488 0.92066346 218.51254299 0.94088495 234.48111016 C0.95453223 244.31620517 0.99745893 254.15024224 1.07916467 263.98501117 C1.13247172 270.75061472 1.14790166 277.51568016 1.13501377 284.28147792 C1.12867637 288.17178484 1.13762055 292.06025823 1.19205475 295.95022964 C1.45213759 315.46532334 -1.07579342 331.36980825 -10 349 C-12.4157823 345.37632655 -13.9170029 341.64204859 -15.5625 337.625 C-15.87896484 336.86960937 -16.19542969 336.11421875 -16.52148438 335.3359375 C-16.82505859 334.59859375 -17.12863281 333.86125 -17.44140625 333.1015625 C-17.71670166 332.43463379 -17.99199707 331.76770508 -18.27563477 331.08056641 C-19.71690012 326.94087536 -20.12553067 322.99658857 -20.13142776 318.63098526 C-20.13526891 317.56066126 -20.13911005 316.49033726 -20.1430676 315.3875792 C-20.14220112 314.21765231 -20.14133463 313.04772542 -20.14044189 311.84234619 C-20.14341302 310.59485714 -20.14638414 309.34736808 -20.1494453 308.06207633 C-20.15750199 304.60186288 -20.15930412 301.14167018 -20.16004276 297.68144846 C-20.16189562 293.94853568 -20.1694441 290.21563362 -20.17617798 286.48272705 C-20.18975209 278.32152357 -20.19578451 270.16032502 -20.20018864 261.99911213 C-20.20295246 256.90219583 -20.20719006 251.80528142 -20.21169281 246.70836639 C-20.22388398 232.59335067 -20.23418379 218.47833646 -20.2375679 204.36331558 C-20.23778747 203.4601662 -20.23800703 202.55701682 -20.23823325 201.62649928 C-20.23845153 200.72120483 -20.23866981 199.81591038 -20.2388947 198.88318276 C-20.23933817 197.04874945 -20.23978473 195.21431613 -20.24023438 193.37988281 C-20.2404558 192.46994299 -20.24067723 191.56000318 -20.24090537 190.62248942 C-20.24485327 175.8787177 -20.26230772 161.1349954 -20.2855939 146.39124277 C-20.30931464 131.2500029 -20.32177007 116.10878782 -20.32293582 100.96752906 C-20.32385214 92.46789085 -20.32959374 83.96831705 -20.34775543 75.46869659 C-20.36316613 68.23110415 -20.36827115 60.99359603 -20.36001733 53.7559903 C-20.35611433 50.06474131 -20.35702321 46.3736621 -20.37107468 42.68243408 C-20.38618367 38.67669662 -20.37793685 34.67134064 -20.36749268 30.66558838 C-20.37554908 29.50458437 -20.38360548 28.34358037 -20.39190602 27.14739442 C-20.34446668 19.36719389 -19.29409266 12.97054498 -15.375 6.1875 C-10.95147364 2.1131994 -5.99737422 0 0 0 Z " fill="#E8ECF2" transform="translate(449,72)"/>
<path d="M0 0 C1.16141447 0.00207207 2.32282894 0.00414413 3.51943779 0.00627899 C4.77766413 0.01383461 6.03589046 0.02139023 7.33224487 0.0291748 C8.67275431 0.0337495 10.01326513 0.0379345 11.35377693 0.04175568 C14.90428442 0.05345613 18.45472101 0.07194119 22.00518513 0.09285355 C24.08771973 0.10501648 26.17025713 0.1160326 28.25279999 0.12667847 C37.45529658 0.17450713 46.65764332 0.23871706 55.86000586 0.30727577 C59.7596109 0.33609048 63.65922487 0.3636471 67.55883789 0.39135742 C74.88895039 0.44362543 82.21905464 0.49696675 89.54915631 0.55072927 C97.91728038 0.61205022 106.2854133 0.67212046 114.65354705 0.7321043 C131.81712684 0.85516207 148.98069534 0.97972982 166.14425659 1.10534668 C166.34842253 4.97956369 166.47217196 8.8523926 166.58175659 12.73034668 C166.66973511 14.37196777 166.66973511 14.37196777 166.75949097 16.04675293 C166.95338652 25.18754318 166.95338652 25.18754318 163.73371887 28.83621216 C157.44694453 33.09725623 148.55054626 31.88032293 141.27536011 31.78649902 C139.44183915 31.78480555 137.60831413 31.78575858 135.77479553 31.78915405 C130.80806814 31.79087327 125.84221283 31.75563502 120.87568784 31.71371031 C115.68139666 31.67616417 110.48708477 31.67267488 105.29267883 31.66555786 C95.46124693 31.64692046 85.63021606 31.59769825 75.79896063 31.53746092 C64.60438845 31.47036151 53.40979697 31.43739812 42.2150737 31.40728831 C19.19123825 31.34459834 -3.83221317 31.23787393 -26.85574341 31.10534668 C-26.85574341 38.69534668 -26.85574341 46.28534668 -26.85574341 54.10534668 C47.06425659 54.10534668 120.98425659 54.10534668 197.14425659 54.10534668 C197.14425659 45.19534668 197.14425659 36.28534668 197.14425659 27.10534668 C197.47425659 27.10534668 197.80425659 27.10534668 198.14425659 27.10534668 C198.14425659 36.34534668 198.14425659 45.58534668 198.14425659 55.10534668 C123.56425659 55.43534668 48.98425659 55.76534668 -27.85574341 56.10534668 C-27.85574341 14.39063897 -27.85574341 14.39063897 -20.59793091 6.60925293 C-14.56977325 1.40557424 -7.79990716 -0.02956419 0 0 Z " fill="#FD636F" transform="translate(70.85574340820313,91.8946533203125)"/>
<path d="M0 0 C0 16.17 0 32.34 0 49 C-1.65 48.01 -3.3 47.02 -5 46 C-8.04454754 45.53240882 -8.04454754 45.53240882 -11.35083008 45.56762695 C-12.6117598 45.54783279 -13.87268951 45.52803864 -15.17182922 45.50764465 C-16.53772838 45.50087594 -17.90362916 45.49442895 -19.26953125 45.48828125 C-20.67487653 45.47142575 -22.08020682 45.45327433 -23.48551941 45.43388367 C-27.1728751 45.38647149 -30.86016997 45.35660574 -34.54772949 45.33044434 C-38.31514409 45.30059418 -42.08235352 45.25423955 -45.84960938 45.20898438 C-53.23308904 45.12149757 -60.61607457 45.06147971 -68 45 C-68 31.47 -68 17.94 -68 4 C-61.24789063 3.94392578 -61.24789063 3.94392578 -54.359375 3.88671875 C-50.76856094 3.84860847 -47.17780796 3.80753569 -43.58705139 3.7644577 C-39.79747533 3.71980758 -36.00800959 3.68037026 -32.21826172 3.65356445 C-28.56760884 3.62754121 -24.91737122 3.58714656 -21.2669754 3.53681374 C-19.87479063 3.52013823 -18.48253402 3.50862817 -17.09026337 3.50238609 C-15.13916134 3.49275341 -13.18819016 3.46299634 -11.23730469 3.43237305 C-9.57184601 3.41571846 -9.57184601 3.41571846 -7.8727417 3.39872742 C-4.87840128 2.98312248 -2.51081566 0 0 0 Z " fill="#FEFEFE" transform="translate(336,261)"/>
<path d="M0 0 C0 15.84 0 31.68 0 48 C-1.65 47.01 -3.3 46.02 -5 45 C-8.04454754 44.53240882 -8.04454754 44.53240882 -11.35083008 44.56762695 C-12.6117598 44.54783279 -13.87268951 44.52803864 -15.17182922 44.50764465 C-16.53772838 44.50087594 -17.90362916 44.49442895 -19.26953125 44.48828125 C-20.67487653 44.47142575 -22.08020682 44.45327433 -23.48551941 44.43388367 C-27.1728751 44.38647149 -30.86016997 44.35660574 -34.54772949 44.33044434 C-38.31514409 44.30059418 -42.08235352 44.25423955 -45.84960938 44.20898438 C-53.23308904 44.12149757 -60.61607457 44.06147971 -68 44 C-68 30.8 -68 17.6 -68 4 C-61.37357422 3.94392578 -61.37357422 3.94392578 -54.61328125 3.88671875 C-51.08534562 3.84859811 -47.55747178 3.80752541 -44.02959442 3.7644577 C-40.30856894 3.71984097 -36.58765492 3.68039683 -32.86645508 3.65356445 C-29.28063327 3.62750722 -25.69523181 3.58708857 -22.10967064 3.53681374 C-20.74343288 3.52016121 -19.37712244 3.50863685 -18.0107975 3.50238609 C-16.09342502 3.49272839 -14.17618611 3.4629542 -12.2590332 3.43237305 C-11.16871292 3.42126999 -10.07839264 3.41016693 -8.95503235 3.39872742 C-5.73783454 2.96462558 -2.86615078 0 0 0 Z " fill="#FEFEFE" transform="translate(336,206)"/>
<path d="M0 0 C15.85189276 -0.12032643 15.85189276 -0.12032643 22.60351562 -0.14648438 C27.21242621 -0.16442529 31.82115818 -0.18566025 36.42993164 -0.22631836 C40.14521429 -0.25888946 43.86030544 -0.27684817 47.57571983 -0.28463173 C48.99393415 -0.29017934 50.41213787 -0.30101244 51.83027077 -0.31719017 C53.81488467 -0.3389319 55.79969086 -0.34022513 57.78442383 -0.34057617 C58.91471512 -0.34723801 60.04500641 -0.35389984 61.20954895 -0.36076355 C64 0 64 0 65.86421204 1.31364441 C67.74008819 4.0988423 67.42669714 7.16299937 67.3984375 10.40625 C67.40130768 11.12735962 67.40417786 11.84846924 67.40713501 12.59143066 C67.40917452 14.11450995 67.40365247 15.6376155 67.39111328 17.16064453 C67.37505643 19.49180678 67.3909641 21.82123542 67.41015625 24.15234375 C67.4081738 25.63281633 67.40433007 27.11328782 67.3984375 28.59375 C67.40451019 29.2906897 67.41058289 29.98762939 67.4168396 30.70568848 C67.34740261 35.48419568 67.34740261 35.48419568 65.86421204 37.68635559 C63.15277174 39.59701184 61.08034168 39.36000201 57.78442383 39.34057617 C56.5033223 39.34034958 55.22222076 39.34012299 53.90229797 39.33988953 C52.50387219 39.32456957 51.10544996 39.30892158 49.70703125 39.29296875 C48.27642766 39.28737268 46.84581831 39.28310263 45.41520691 39.28010559 C41.65198868 39.26865756 37.88911844 39.23919115 34.1260376 39.20599365 C29.60982708 39.16989256 25.09350013 39.15613137 20.57718658 39.13863373 C13.71788244 39.1095533 6.8593417 39.05206697 0 39 C0 26.13 0 13.26 0 0 Z " fill="#0182FC" transform="translate(269,119)"/>
<path d="M0 0 C0.66 0 1.32 0 2 0 C2 14.19 2 28.38 2 43 C0.35 42.01 -1.3 41.02 -3 40 C-6.04454754 39.53240882 -6.04454754 39.53240882 -9.35083008 39.56762695 C-10.6117598 39.54783279 -11.87268951 39.52803864 -13.17182922 39.50764465 C-14.53772838 39.50087594 -15.90362916 39.49442895 -17.26953125 39.48828125 C-18.67487653 39.47142575 -20.08020682 39.45327433 -21.48551941 39.43388367 C-25.1728751 39.38647149 -28.86016997 39.35660574 -32.54772949 39.33044434 C-36.31514409 39.30059418 -40.08235352 39.25423955 -43.84960938 39.20898438 C-51.23308904 39.12149757 -58.61607457 39.06147971 -66 39 C-66 26.79 -66 14.58 -66 2 C-58.97912109 1.90912109 -58.97912109 1.90912109 -51.81640625 1.81640625 C-48.8587143 1.77593169 -45.90103202 1.73516861 -42.94335938 1.69335938 C-38.24441735 1.62696351 -33.54547732 1.56166118 -28.84643555 1.50268555 C-25.05979158 1.45509439 -21.27324084 1.40275376 -17.48670769 1.34705925 C-16.03898362 1.32661182 -14.59123397 1.30790276 -13.14346504 1.29092598 C-11.12235841 1.26693492 -9.1013339 1.23629925 -7.08032227 1.20532227 C-5.92782486 1.18977798 -4.77532745 1.1742337 -3.58790588 1.15821838 C-1.07029411 1.29117368 -1.07029411 1.29117368 0 0 Z " fill="#FEFEFE" transform="translate(334,156)"/>
<path d="M0 0 C10.23 0 20.46 0 31 0 C31 23.76 31 47.52 31 72 C20.77 72 10.54 72 0 72 C0 48.24 0 24.48 0 0 Z " fill="#9FACBA" transform="translate(95,372)"/>
<path d="M0 0 C0.74567734 -0.0004985 1.49135468 -0.00099701 2.2596283 -0.00151062 C3.83400135 0.00082764 5.4083783 0.0105417 6.98266602 0.02709961 C9.39698553 0.05072881 11.81020335 0.04765469 14.22460938 0.04101562 C15.75391285 0.04659129 17.28321167 0.05370047 18.8125 0.0625 C19.89846214 0.06113289 19.89846214 0.06113289 21.00636292 0.05973816 C26.10879812 0.13223562 26.10879812 0.13223562 28.33984375 2.36328125 C28.55169023 4.90901685 28.64383183 7.34328763 28.640625 9.890625 C28.64491013 10.63534561 28.64919525 11.38006622 28.65361023 12.14735413 C28.65935657 13.72346988 28.65985155 15.29961215 28.65551758 16.87573242 C28.6523604 19.28805817 28.67580131 21.69915437 28.70117188 24.11132812 C28.70344512 25.64192553 28.70414824 27.17252625 28.703125 28.703125 C28.71233475 29.42507553 28.72154449 30.14702606 28.73103333 30.89085388 C28.70537777 33.66706675 28.61855774 35.85702885 27.26416016 38.31713867 C24.25778394 39.9515363 21.58617284 39.75286859 18.1875 39.76171875 C17.14268715 39.76602402 17.14268715 39.76602402 16.07676697 39.77041626 C14.60496202 39.77245576 13.1331299 39.76693377 11.66137695 39.75439453 C9.41360494 39.73836157 7.16763741 39.75423257 4.91992188 39.7734375 C3.48827729 39.77145457 2.05663383 39.76760986 0.625 39.76171875 C-0.6755835 39.75833496 -1.97616699 39.75495117 -3.31616211 39.75146484 C-6.89905011 39.33554954 -8.38369992 39.16317439 -10.66015625 36.36328125 C-11.05446307 33.75222175 -11.19830902 31.56631204 -11.15625 28.95703125 C-11.15770523 28.23592163 -11.15916046 27.51481201 -11.16065979 26.77185059 C-11.15900137 25.24873816 -11.1474461 23.72560888 -11.12670898 22.20263672 C-11.09775641 19.87134624 -11.10609821 17.54233033 -11.11914062 15.2109375 C-11.11290287 13.7304577 -11.10451164 12.24998508 -11.09375 10.76953125 C-11.09668564 10.07259155 -11.09962128 9.37565186 -11.10264587 8.65759277 C-11.05004092 5.95863892 -10.90742736 3.82091132 -9.61181641 1.4230957 C-6.53467811 -0.2478897 -3.41211919 -0.04352757 0 0 Z " fill="#11D2B3" transform="translate(307.66015625,405.63671875)"/>
<path d="M0 0 C0.72397476 0.00091141 1.44794952 0.00182281 2.19386292 0.00276184 C2.93858353 -0.00152328 3.68330414 -0.00580841 4.45059204 -0.01022339 C6.02670779 -0.01596972 7.60285007 -0.01646471 9.17897034 -0.01213074 C11.59129608 -0.00897356 14.00239229 -0.03241447 16.41456604 -0.05778503 C17.94516345 -0.06005828 19.47576416 -0.0607614 21.00636292 -0.05973816 C21.72831345 -0.06894791 22.45026398 -0.07815765 23.1940918 -0.08764648 C25.96959018 -0.06199753 28.15922432 0.02394076 30.61817932 1.37922668 C32.25451737 4.38286351 32.0746226 7.05809041 32.10011292 10.45588684 C32.10535477 11.15242874 32.11059662 11.84897064 32.11599731 12.56661987 C32.12241442 14.038403 32.12108445 15.51023743 32.11256409 16.98200989 C32.10406058 19.23009466 32.13280238 21.47563175 32.16456604 23.72346497 C32.16617842 25.15510483 32.16559982 26.58674918 32.16261292 28.01838684 C32.16539246 29.96926208 32.16539246 29.96926208 32.16822815 31.95954895 C31.66651917 35.30354309 31.66651917 35.30354309 30.09083557 37.7278595 C26.74874001 39.90005333 24.35122343 39.80529296 20.38136292 39.79963684 C19.68386429 39.80109207 18.98636566 39.8025473 18.26773071 39.80404663 C16.7976716 39.80239099 15.32759457 39.79086686 13.85768127 39.77009583 C11.60766601 39.7410901 9.36000113 39.74950109 7.10987854 39.76252747 C5.67952855 39.75629101 4.24918599 39.74790079 2.81886292 39.73713684 C1.51940735 39.72738831 0.21995178 39.71763977 -1.11888123 39.70759583 C-4.33348083 39.30354309 -4.33348083 39.30354309 -6.25779724 38.25520325 C-7.95140449 35.18241696 -7.74035293 32.06046597 -7.69676208 28.64338684 C-7.69726059 27.8977095 -7.69775909 27.15203217 -7.69827271 26.38375854 C-7.69593444 24.80938549 -7.68622039 23.23500854 -7.66966248 21.66072083 C-7.64603328 19.24640131 -7.6491074 16.83318349 -7.65574646 14.41877747 C-7.6501708 12.88947399 -7.64306162 11.36017517 -7.63426208 9.83088684 C-7.63517349 9.10691208 -7.6360849 8.38293732 -7.63702393 7.63702393 C-7.54721356 1.31609192 -6.32093201 0.08981036 0 0 Z " fill="#FD4957" transform="translate(169.33348083496094,405.6964569091797)"/>
<path d="M0 0 C0.74567734 -0.0004985 1.49135468 -0.00099701 2.2596283 -0.00151062 C3.83400135 0.00082764 5.4083783 0.0105417 6.98266602 0.02709961 C9.39698553 0.05072881 11.81020335 0.04765469 14.22460938 0.04101562 C15.75391285 0.04659129 17.28321167 0.05370047 18.8125 0.0625 C19.89846214 0.06113289 19.89846214 0.06113289 21.00636292 0.05973816 C26.10879812 0.13223562 26.10879812 0.13223562 28.33984375 2.36328125 C28.55169023 4.90901685 28.64383183 7.34328763 28.640625 9.890625 C28.64491013 10.63534561 28.64919525 11.38006622 28.65361023 12.14735413 C28.65935657 13.72346988 28.65985155 15.29961215 28.65551758 16.87573242 C28.6523604 19.28805817 28.67580131 21.69915437 28.70117188 24.11132812 C28.70344512 25.64192553 28.70414824 27.17252625 28.703125 28.703125 C28.71233475 29.42507553 28.72154449 30.14702606 28.73103333 30.89085388 C28.70538438 33.66635227 28.61944608 35.85598641 27.26416016 38.31494141 C24.26052333 39.95127946 21.58529643 39.77138468 18.1875 39.796875 C17.14268715 39.80473778 17.14268715 39.80473778 16.07676697 39.8127594 C14.60498384 39.8191765 13.13314941 39.81784654 11.66137695 39.80932617 C9.41329219 39.80082266 7.16775509 39.82956446 4.91992188 39.86132812 C3.48828201 39.8629405 2.05663766 39.86236191 0.625 39.859375 C-0.6755835 39.86122803 -1.97616699 39.86308105 -3.31616211 39.86499023 C-6.66015625 39.36328125 -6.66015625 39.36328125 -9.08447266 37.78759766 C-11.25666649 34.4455021 -11.16190612 32.04798552 -11.15625 28.078125 C-11.15770523 27.38062637 -11.15916046 26.68312775 -11.16065979 25.9644928 C-11.15900414 24.49443369 -11.14748002 23.02435665 -11.12670898 21.55444336 C-11.09770326 19.3044281 -11.10611425 17.05676322 -11.11914062 14.80664062 C-11.11290417 13.37629064 -11.10451395 11.94594808 -11.09375 10.515625 C-11.08400146 9.21616943 -11.07425293 7.91671387 -11.06420898 6.57788086 C-10.66015625 3.36328125 -10.66015625 3.36328125 -9.61181641 1.43896484 C-6.53903012 -0.25464241 -3.41707913 -0.04359085 0 0 Z " fill="#FED15C" transform="translate(239.66015625,405.63671875)"/>
<path d="M0 0 C1.20555794 -0.01051392 1.20555794 -0.01051392 2.43547058 -0.02124023 C5.08949435 -0.03883111 7.74244995 -0.02719405 10.39648438 -0.01367188 C12.24206751 -0.01636649 14.08764926 -0.02024865 15.93322754 -0.02526855 C19.8001864 -0.03116507 23.66677554 -0.02259578 27.53369141 -0.00390625 C32.49055662 0.01888347 37.44655555 0.0057612 42.40338898 -0.01819611 C46.2141167 -0.03264998 50.02463902 -0.02805 53.83537292 -0.01768494 C55.66302086 -0.01501651 57.49068744 -0.01829148 59.3183136 -0.02760315 C61.8728678 -0.03776214 64.42601906 -0.02227788 66.98046875 0 C67.73591476 -0.00809692 68.49136078 -0.01619385 69.2696991 -0.02453613 C72.70717633 0.03100423 74.65291961 0.26944794 77.45568848 2.33117676 C79.72347604 5.56229147 79.6081659 7.67267089 78.99023438 11.51757812 C76.16552016 14.54375882 74.47483479 15.44911072 70.34753418 16.03224182 C68.92072671 16.05889407 67.49340586 16.06375462 66.06640625 16.05102539 C65.28366837 16.05964096 64.50093048 16.06825653 63.69447327 16.07713318 C61.11563744 16.09977491 58.5378898 16.09305848 55.95898438 16.08398438 C54.16206541 16.08922049 52.36514919 16.09549693 50.5682373 16.10276794 C46.8056137 16.11316858 43.04336837 16.10861517 39.28076172 16.09399414 C34.46176501 16.07679979 29.6439599 16.10031085 24.82509613 16.13548374 C21.11554074 16.15745506 17.40627066 16.15601707 13.69667053 16.14771843 C11.92007642 16.14689889 10.14346136 16.15376279 8.3669281 16.16848946 C5.88189641 16.18593287 3.39900836 16.17139747 0.9140625 16.14868164 C-0.18330482 16.16621994 -0.18330482 16.16621994 -1.30284119 16.18411255 C-5.19618426 16.11178923 -6.88165368 15.61920084 -9.96984863 13.16954041 C-12.00976562 10.51757812 -12.00976562 10.51757812 -12.57226562 7.45507812 C-11.21544563 0.36946258 -6.33476316 -0.06789644 0 0 Z " fill="#B6C4CF" transform="translate(154.009765625,305.482421875)"/>
<path d="M0 0 C1.20555794 -0.01051392 1.20555794 -0.01051392 2.43547058 -0.02124023 C5.08949435 -0.03883111 7.74244995 -0.02719405 10.39648438 -0.01367188 C12.24206751 -0.01636649 14.08764926 -0.02024865 15.93322754 -0.02526855 C19.8001864 -0.03116507 23.66677554 -0.02259578 27.53369141 -0.00390625 C32.49055662 0.01888347 37.44655555 0.0057612 42.40338898 -0.01819611 C46.2141167 -0.03264998 50.02463902 -0.02805 53.83537292 -0.01768494 C55.66302086 -0.01501651 57.49068744 -0.01829148 59.3183136 -0.02760315 C61.8728678 -0.03776214 64.42601906 -0.02227788 66.98046875 0 C67.73591476 -0.00809692 68.49136078 -0.01619385 69.2696991 -0.02453613 C72.70717633 0.03100423 74.65291961 0.26944794 77.45568848 2.33117676 C79.72347604 5.56229147 79.6081659 7.67267089 78.99023438 11.51757812 C76.16552016 14.54375882 74.47483479 15.44911072 70.34753418 16.03224182 C68.92072671 16.05889407 67.49340586 16.06375462 66.06640625 16.05102539 C65.28366837 16.05964096 64.50093048 16.06825653 63.69447327 16.07713318 C61.11563744 16.09977491 58.5378898 16.09305848 55.95898438 16.08398438 C54.16206541 16.08922049 52.36514919 16.09549693 50.5682373 16.10276794 C46.8056137 16.11316858 43.04336837 16.10861517 39.28076172 16.09399414 C34.46176501 16.07679979 29.6439599 16.10031085 24.82509613 16.13548374 C21.11554074 16.15745506 17.40627066 16.15601707 13.69667053 16.14771843 C11.92007642 16.14689889 10.14346136 16.15376279 8.3669281 16.16848946 C5.88189641 16.18593287 3.39900836 16.17139747 0.9140625 16.14868164 C-0.18330482 16.16621994 -0.18330482 16.16621994 -1.30284119 16.18411255 C-5.19618426 16.11178923 -6.88165368 15.61920084 -9.96984863 13.16954041 C-12.00976562 10.51757812 -12.00976562 10.51757812 -12.57226562 7.45507812 C-11.21544563 0.36946258 -6.33476316 -0.06789644 0 0 Z " fill="#B6C4CF" transform="translate(154.009765625,194.482421875)"/>
<path d="M0 0 C1.20555794 -0.01051392 1.20555794 -0.01051392 2.43547058 -0.02124023 C5.08949435 -0.03883111 7.74244995 -0.02719405 10.39648438 -0.01367188 C12.24206751 -0.01636649 14.08764926 -0.02024865 15.93322754 -0.02526855 C19.8001864 -0.03116507 23.66677554 -0.02259578 27.53369141 -0.00390625 C32.49055662 0.01888347 37.44655555 0.0057612 42.40338898 -0.01819611 C46.2141167 -0.03264998 50.02463902 -0.02805 53.83537292 -0.01768494 C55.66302086 -0.01501651 57.49068744 -0.01829148 59.3183136 -0.02760315 C61.8728678 -0.03776214 64.42601906 -0.02227788 66.98046875 0 C67.73591476 -0.00809692 68.49136078 -0.01619385 69.2696991 -0.02453613 C72.70717633 0.03100423 74.65291961 0.26944794 77.45568848 2.33117676 C79.72347604 5.56229147 79.6081659 7.67267089 78.99023438 11.51757812 C76.16552016 14.54375882 74.47483479 15.44911072 70.34753418 16.03224182 C68.92072671 16.05889407 67.49340586 16.06375462 66.06640625 16.05102539 C65.28366837 16.05964096 64.50093048 16.06825653 63.69447327 16.07713318 C61.11563744 16.09977491 58.5378898 16.09305848 55.95898438 16.08398438 C54.16206541 16.08922049 52.36514919 16.09549693 50.5682373 16.10276794 C46.8056137 16.11316858 43.04336837 16.10861517 39.28076172 16.09399414 C34.46176501 16.07679979 29.6439599 16.10031085 24.82509613 16.13548374 C21.11554074 16.15745506 17.40627066 16.15601707 13.69667053 16.14771843 C11.92007642 16.14689889 10.14346136 16.15376279 8.3669281 16.16848946 C5.88189641 16.18593287 3.39900836 16.17139747 0.9140625 16.14868164 C-0.18330482 16.16621994 -0.18330482 16.16621994 -1.30284119 16.18411255 C-5.19618426 16.11178923 -6.88165368 15.61920084 -9.96984863 13.16954041 C-12.00976562 10.51757812 -12.00976562 10.51757812 -12.57226562 7.45507812 C-11.21544563 0.36946258 -6.33476316 -0.06789644 0 0 Z " fill="#B6C4CF" transform="translate(154.009765625,249.482421875)"/>
<path d="M0 0 C1.96223511 -0.01891296 1.96223511 -0.01891296 3.96411133 -0.03820801 C5.38884012 -0.0310482 6.81356399 -0.02284422 8.23828125 -0.01367188 C9.70272072 -0.01636736 11.16715844 -0.02025026 12.6315918 -0.02526855 C15.69825305 -0.03116106 18.76444774 -0.02260934 21.83105469 -0.00390625 C25.75891761 0.01888402 29.68568731 0.00575949 33.61351013 -0.01819611 C36.63676162 -0.03266128 39.65975458 -0.02804499 42.68301392 -0.01768494 C44.13107432 -0.0150196 45.57915831 -0.0182807 47.02719116 -0.02760315 C49.05197695 -0.03777847 51.07684519 -0.0195152 53.1015625 0 C54.82886597 0.00477356 54.82886597 0.00477356 56.59106445 0.00964355 C60.19918173 0.62885398 61.38480092 1.60898061 63.55078125 4.51757812 C64.10349866 8.38660001 64.29665761 10.51642868 61.92260742 13.70298767 C58.8235963 16.07391859 56.98150584 16.03014012 53.1015625 16.05102539 C51.79340576 16.06686172 50.48524902 16.08269806 49.13745117 16.09901428 C47.71272423 16.09517298 46.28800009 16.09013402 44.86328125 16.08398438 C43.39884038 16.08922034 41.93440289 16.09549672 40.4699707 16.10276794 C37.40332144 16.11316943 34.33713628 16.10861445 31.27050781 16.09399414 C27.34248104 16.07679898 23.41591604 16.10030938 19.48805237 16.13548374 C16.46478604 16.15745377 13.4418698 16.15601759 10.41854858 16.14771843 C8.97047318 16.1468988 7.5223721 16.15376455 6.07437134 16.16848946 C4.04964519 16.18592424 2.02470829 16.16807985 0 16.14868164 C-1.15153564 16.14771988 -2.30307129 16.14675812 -3.48950195 16.14576721 C-6.44921875 15.51757812 -6.44921875 15.51757812 -8.82104492 13.16954041 C-10.81218961 9.92637281 -11.08611846 8.25936391 -10.44921875 4.51757812 C-7.33657818 0.40496268 -5.04370925 0.01393875 0 0 Z " fill="#596C76" transform="translate(219.44921875,30.482421875)"/>
<path d="M0 0 C15.18 0 30.36 0 46 0 C46 6.27 46 12.54 46 19 C43 22 43 22 41.00679016 22.36076355 C39.87094734 22.3507708 39.87094734 22.3507708 38.7121582 22.34057617 C37.85149246 22.34034958 36.99082672 22.34012299 36.1040802 22.33988953 C34.71644722 22.31666374 34.71644722 22.31666374 33.30078125 22.29296875 C32.35059616 22.28872391 31.40041107 22.28447906 30.4214325 22.28010559 C27.38483412 22.26330484 24.34889798 22.22564992 21.3125 22.1875 C19.25456687 22.17245497 17.19662335 22.15876625 15.13867188 22.14648438 C10.09198716 22.11594776 5.04673534 22.05722883 0 22 C0 14.74 0 7.48 0 0 Z " fill="#0492FC" transform="translate(269,119)"/>
<path d="M0 0 C6.6 0 13.2 0 20 0 C20.72058341 9.60777887 18.71763056 16.69971689 15.05371094 25.44775391 C13.81233025 28.45456432 12.62807585 31.48137938 11.4453125 34.51171875 C10.54755521 36.79974618 9.64911718 39.08750662 8.75 41.375 C8.31381348 42.48770264 7.87762695 43.60040527 7.42822266 44.74682617 C7.01362793 45.78685791 6.5990332 46.82688965 6.171875 47.8984375 C5.8015918 48.83349121 5.43130859 49.76854492 5.04980469 50.73193359 C4 53 4 53 2 55 C-0.3828125 55.1328125 -0.3828125 55.1328125 -3 54 C-4.73475976 51.46942117 -5.7775039 48.72848985 -6.875 45.875 C-7.1946875 45.12734375 -7.514375 44.3796875 -7.84375 43.609375 C-10.97994569 35.7825214 -9.30608118 30.29946989 -6.1171875 22.76367188 C-5.37667104 21.05608235 -4.63192424 19.3503207 -3.8828125 17.64648438 C-1.36201123 11.66188136 -0.37192599 6.49127087 0 0 Z " fill="#C5D3DD" transform="translate(449,386)"/>
<path d="M0 0 C7.99745542 -0.11307143 15.99428699 -0.20475471 23.99232769 -0.25906086 C27.70636943 -0.28512841 31.41983486 -0.32047209 35.13354492 -0.37719727 C38.71919713 -0.43162214 42.30429591 -0.46144192 45.89032936 -0.47438622 C47.25670902 -0.48360764 48.62305919 -0.50161581 49.9892025 -0.52865028 C62.04448532 -0.75767046 62.04448532 -0.75767046 65.37426758 2.30395508 C67 5 67 5 67.0625 8.625 C65.87588241 12.39425587 65.34772046 13.10730325 62 15 C59.16522217 15.36076355 59.16522217 15.36076355 55.85449219 15.34057617 C54.61350769 15.34034958 53.37252319 15.34012299 52.09393311 15.33988953 C50.74491005 15.32457089 49.39589069 15.30892293 48.046875 15.29296875 C46.6625413 15.28737075 45.27820164 15.28310161 43.89385986 15.28010559 C40.25723753 15.26867272 36.62097689 15.23921946 32.98449707 15.20599365 C29.27096448 15.17525887 25.55737323 15.16159301 21.84375 15.14648438 C14.56231633 15.11434774 7.281255 15.06159313 0 15 C0 10.05 0 5.1 0 0 Z " fill="#B6C4CF" transform="translate(269,250)"/>
<path d="M0 0 C7.99745542 -0.11307143 15.99428699 -0.20475471 23.99232769 -0.25906086 C27.70636943 -0.28512841 31.41983486 -0.32047209 35.13354492 -0.37719727 C38.71919713 -0.43162214 42.30429591 -0.46144192 45.89032936 -0.47438622 C47.25670902 -0.48360764 48.62305919 -0.50161581 49.9892025 -0.52865028 C62.04464751 -0.75767355 62.04464751 -0.75767355 65.37036133 2.30395508 C67 5 67 5 67.125 8.625 C66 12 66 12 63.81513977 13.68965149 C60.56653184 15.20176417 58.40518094 15.3627651 54.83276367 15.34057617 C53.61187546 15.34034958 52.39098724 15.34012299 51.13310242 15.33988953 C49.17036125 15.31666374 49.17036125 15.31666374 47.16796875 15.29296875 C45.80748463 15.28736884 44.44699443 15.2831006 43.08650208 15.28010559 C39.51729433 15.26868776 35.94845671 15.23924765 32.37939453 15.20599365 C28.73279832 15.17522626 25.08614191 15.16158606 21.43945312 15.14648438 C14.29280347 15.11437442 7.14646493 15.06163198 0 15 C0 10.05 0 5.1 0 0 Z " fill="#B6C4CF" transform="translate(269,306)"/>
<path d="M0 0 C7.99745542 -0.11307143 15.99428699 -0.20475471 23.99232769 -0.25906086 C27.70636943 -0.28512841 31.41983486 -0.32047209 35.13354492 -0.37719727 C38.71919713 -0.43162214 42.30429591 -0.46144192 45.89032936 -0.47438622 C47.25670902 -0.48360764 48.62305919 -0.50161581 49.9892025 -0.52865028 C62.04464751 -0.75767355 62.04464751 -0.75767355 65.37036133 2.30395508 C67 5 67 5 67.125 8.625 C66 12 66 12 63.81513977 13.68965149 C60.56653184 15.20176417 58.40518094 15.3627651 54.83276367 15.34057617 C53.61187546 15.34034958 52.39098724 15.34012299 51.13310242 15.33988953 C49.17036125 15.31666374 49.17036125 15.31666374 47.16796875 15.29296875 C45.80748463 15.28736884 44.44699443 15.2831006 43.08650208 15.28010559 C39.51729433 15.26868776 35.94845671 15.23924765 32.37939453 15.20599365 C28.73279832 15.17522626 25.08614191 15.16158606 21.43945312 15.14648438 C14.29280347 15.11437442 7.14646493 15.06163198 0 15 C0 10.05 0 5.1 0 0 Z " fill="#B6C4CF" transform="translate(269,195)"/>
<path d="M0 0 C2.64013894 2.36935546 3.85078516 3.86523033 4.31640625 7.40625 C3.90611054 10.76966175 2.82765274 11.8675961 0.5 14.3125 C-0.30566406 15.16328125 -1.11132812 16.0140625 -1.94140625 16.890625 C-2.95910646 17.92888129 -3.97886607 18.96512062 -5 20 C-5.6482373 20.66193359 -6.29647461 21.32386719 -6.96435547 22.00585938 C-10.49805316 25.60693518 -14.04731812 29.19258729 -17.62109375 32.75390625 C-18.2236499 33.35533447 -18.82620605 33.9567627 -19.44702148 34.57641602 C-22.00258807 36.9190522 -24.43464056 37.62379897 -27.91845703 37.56689453 C-32.73523916 36.25507561 -36.07066976 31.91827614 -39.4375 28.4375 C-40.26443359 27.63763672 -41.09136719 26.83777344 -41.94335938 26.01367188 C-47.82851343 20.06048136 -47.82851343 20.06048136 -48.63671875 15.0625 C-47.8696909 11.37323722 -47.14866025 10.07148701 -44 8 C-41.25 7.3125 -41.25 7.3125 -38 8 C-35.81221514 9.58804461 -33.88137172 11.30639696 -31.9296875 13.17578125 C-30.04667897 14.95587231 -28.08308521 16.46379908 -26 18 C-25.53102295 17.52578613 -25.0620459 17.05157227 -24.57885742 16.56298828 C-22.45103477 14.41436915 -20.31932077 12.26965202 -18.1875 10.125 C-17.44951172 9.37863281 -16.71152344 8.63226563 -15.95117188 7.86328125 C-15.23896484 7.14785156 -14.52675781 6.43242187 -13.79296875 5.6953125 C-13.1383667 5.03547363 -12.48376465 4.37563477 -11.80932617 3.69580078 C-7.87902999 0.01210934 -5.32042616 -0.65338567 0 0 Z " fill="#60E1C5" transform="translate(127,293)"/>
<path d="M0 0 C2.64013894 2.36935546 3.85078516 3.86523033 4.31640625 7.40625 C3.90611054 10.76966175 2.82765274 11.8675961 0.5 14.3125 C-0.30566406 15.16328125 -1.11132812 16.0140625 -1.94140625 16.890625 C-2.95910646 17.92888129 -3.97886607 18.96512062 -5 20 C-5.6482373 20.66193359 -6.29647461 21.32386719 -6.96435547 22.00585938 C-10.49805316 25.60693518 -14.04731812 29.19258729 -17.62109375 32.75390625 C-18.2236499 33.35533447 -18.82620605 33.9567627 -19.44702148 34.57641602 C-22.00258807 36.9190522 -24.43464056 37.62379897 -27.91845703 37.56689453 C-32.73523916 36.25507561 -36.07066976 31.91827614 -39.4375 28.4375 C-40.26443359 27.63763672 -41.09136719 26.83777344 -41.94335938 26.01367188 C-47.82851343 20.06048136 -47.82851343 20.06048136 -48.63671875 15.0625 C-47.8696909 11.37323722 -47.14866025 10.07148701 -44 8 C-41.25 7.3125 -41.25 7.3125 -38 8 C-35.81221514 9.58804461 -33.88137172 11.30639696 -31.9296875 13.17578125 C-30.04667897 14.95587231 -28.08308521 16.46379908 -26 18 C-25.53102295 17.52578613 -25.0620459 17.05157227 -24.57885742 16.56298828 C-22.45103477 14.41436915 -20.31932077 12.26965202 -18.1875 10.125 C-17.44951172 9.37863281 -16.71152344 8.63226563 -15.95117188 7.86328125 C-15.23896484 7.14785156 -14.52675781 6.43242187 -13.79296875 5.6953125 C-13.1383667 5.03547363 -12.48376465 4.37563477 -11.80932617 3.69580078 C-7.87902999 0.01210934 -5.32042616 -0.65338567 0 0 Z " fill="#60E1C5" transform="translate(127,182)"/>
<path d="M0 0 C3.80748518 0.89620631 5.33944739 2.54186971 7.671875 5.62890625 C8.12262349 8.71402926 8.00614759 10.12656884 6.265625 12.7421875 C5.5746875 13.46792969 4.88375 14.19367188 4.171875 14.94140625 C3.36621094 15.7921875 2.56054688 16.64296875 1.73046875 17.51953125 C0.71276854 18.55778754 -0.30699107 19.59402687 -1.328125 20.62890625 C-1.9763623 21.29083984 -2.62459961 21.95277344 -3.29248047 22.63476562 C-6.82617816 26.23584143 -10.37544312 29.82149354 -13.94921875 33.3828125 C-14.5517749 33.98424072 -15.15433105 34.58566895 -15.77514648 35.20532227 C-18.33071307 37.54795845 -20.76276556 38.25270522 -24.24658203 38.19580078 C-29.06336416 36.88398186 -32.39879476 32.54718239 -35.765625 29.06640625 C-36.59255859 28.26654297 -37.41949219 27.46667969 -38.27148438 26.64257812 C-44.15663843 20.68938761 -44.15663843 20.68938761 -44.96484375 15.69140625 C-44.1978159 12.00214347 -43.47678525 10.70039326 -40.328125 8.62890625 C-37.578125 7.94140625 -37.578125 7.94140625 -34.328125 8.62890625 C-31.40670245 10.71326086 -28.86768938 13.10017157 -26.328125 15.62890625 C-25.75449219 16.19996094 -25.18085937 16.77101562 -24.58984375 17.359375 C-24.17347656 17.77832031 -23.75710937 18.19726562 -23.328125 18.62890625 C-20.07315127 17.21467628 -18.05193445 15.52845798 -15.6484375 12.93359375 C-14.96652344 12.21816406 -14.28460938 11.50273437 -13.58203125 10.765625 C-12.16251127 9.25754781 -10.75101589 7.74187688 -9.34765625 6.21875 C-4.12473832 0.77943999 -4.12473832 0.77943999 0 0 Z " fill="#5FE1C4" transform="translate(123.328125,236.37109375)"/>
<path d="M0 0 C0.89267578 0.00966797 1.78535156 0.01933594 2.70507812 0.02929688 C4.09823242 0.06700195 4.09823242 0.06700195 5.51953125 0.10546875 C6.45990234 0.11900391 7.40027344 0.13253906 8.36914062 0.14648438 C10.69068163 0.18183779 13.01106778 0.23118201 15.33203125 0.29296875 C15.38593482 3.23071338 15.42565675 6.16747107 15.45703125 9.10546875 C15.47378906 9.93884766 15.49054688 10.77222656 15.5078125 11.63085938 C15.51425781 12.43330078 15.52070313 13.23574219 15.52734375 14.0625 C15.53781738 14.80089111 15.54829102 15.53928223 15.55908203 16.30004883 C15.33203125 18.29296875 15.33203125 18.29296875 13.33203125 21.29296875 C10.62486883 22.19535622 9.09426357 22.41148177 6.3203125 22.390625 C5.18432617 22.38579102 5.18432617 22.38579102 4.02539062 22.38085938 C3.23970703 22.37248047 2.45402344 22.36410156 1.64453125 22.35546875 C0.84724609 22.35095703 0.04996094 22.34644531 -0.77148438 22.34179688 C-2.73701132 22.33002725 -4.7024996 22.31209223 -6.66796875 22.29296875 C-6.66796875 26.58296875 -6.66796875 30.87296875 -6.66796875 35.29296875 C-6.99796875 35.29296875 -7.32796875 35.29296875 -7.66796875 35.29296875 C-7.74213898 30.79064541 -7.79657925 26.28867784 -7.83276367 21.78588867 C-7.84784811 20.25425014 -7.86831853 18.72265477 -7.89428711 17.19116211 C-7.93068722 14.98931221 -7.94769788 12.78803342 -7.9609375 10.5859375 C-7.97642136 9.90146042 -7.99190521 9.21698334 -8.00785828 8.51176453 C-8.00884535 5.72193444 -7.95457972 3.74570455 -6.44140625 1.35546875 C-4.14961298 -0.01758801 -2.66458883 -0.05091571 0 0 Z " fill="#FFE179" transform="translate(236.66796875,405.70703125)"/>
<path d="M0 0 C0.82741699 0.01047363 1.65483398 0.02094727 2.50732422 0.03173828 C3.40322266 0.03818359 4.29912109 0.04462891 5.22216797 0.05126953 C6.62789062 0.07640625 6.62789062 0.07640625 8.06201172 0.10205078 C9.00689453 0.11107422 9.95177734 0.12009766 10.92529297 0.12939453 C13.26278464 0.15300556 15.59977295 0.18593562 17.93701172 0.22705078 C18.02411461 3.33104056 18.07743481 6.43471626 18.12451172 9.53955078 C18.14964844 10.420625 18.17478516 11.30169922 18.20068359 12.20947266 C18.21035156 13.05703125 18.22001953 13.90458984 18.22998047 14.77783203 C18.24569092 15.55811768 18.26140137 16.33840332 18.27758789 17.14233398 C17.93701172 19.22705078 17.93701172 19.22705078 16.69677734 20.98681641 C14.46554415 22.55932814 13.20018856 22.57463152 10.48779297 22.52001953 C9.64023438 22.51035156 8.79267578 22.50068359 7.91943359 22.49072266 C6.59782227 22.45301758 6.59782227 22.45301758 5.24951172 22.41455078 C4.35683594 22.40101563 3.46416016 22.38748047 2.54443359 22.37353516 C0.34135006 22.33819157 -1.8605141 22.28885571 -4.06298828 22.22705078 C-4.12089181 18.93545762 -4.15655089 15.64399475 -4.18798828 12.35205078 C-4.20474609 11.41490234 -4.22150391 10.47775391 -4.23876953 9.51220703 C-4.2484375 8.16835938 -4.2484375 8.16835938 -4.25830078 6.79736328 C-4.26877441 5.96994629 -4.27924805 5.1425293 -4.29003906 4.29003906 C-3.96459042 1.33300566 -2.9570334 0.32544865 0 0 Z " fill="#FD636E" transform="translate(166.06298828125,405.77294921875)"/>
<path d="M0 0 C0.84755859 0.00966797 1.69511719 0.01933594 2.56835938 0.02929688 C3.44943359 0.05443359 4.33050781 0.07957031 5.23828125 0.10546875 C6.13095703 0.11900391 7.02363281 0.13253906 7.94335938 0.14648438 C10.14644291 0.18182796 12.34830707 0.23116382 14.55078125 0.29296875 C14.63788414 3.39695853 14.69120434 6.50063423 14.73828125 9.60546875 C14.76341797 10.48654297 14.78855469 11.36761719 14.81445312 12.27539062 C14.82412109 13.12294922 14.83378906 13.97050781 14.84375 14.84375 C14.85946045 15.62403564 14.8751709 16.40432129 14.89135742 17.20825195 C14.55078125 19.29296875 14.55078125 19.29296875 13.31054688 21.05273438 C11.07931369 22.62524611 9.81395809 22.64054949 7.1015625 22.5859375 C6.25400391 22.57626953 5.40644531 22.56660156 4.53320312 22.55664062 C3.2115918 22.51893555 3.2115918 22.51893555 1.86328125 22.48046875 C0.97060547 22.46693359 0.07792969 22.45339844 -0.84179688 22.43945312 C-3.04488041 22.40410954 -5.24674457 22.35477368 -7.44921875 22.29296875 C-7.53632164 19.18897897 -7.58964184 16.08530327 -7.63671875 12.98046875 C-7.66185547 12.09939453 -7.68699219 11.21832031 -7.71289062 10.31054688 C-7.72255859 9.46298828 -7.73222656 8.61542969 -7.7421875 7.7421875 C-7.75789795 6.96190186 -7.7736084 6.18161621 -7.78979492 5.37768555 C-7.44921875 3.29296875 -7.44921875 3.29296875 -6.20898438 1.53320312 C-3.97775119 -0.03930861 -2.71239559 -0.05461199 0 0 Z " fill="#5DE1C4" transform="translate(304.44921875,405.70703125)"/>
<path d="M0 0 C6.6 0.33 13.2 0.66 20 1 C20 12.25 20 12.25 17.8125 17.4453125 C17.36132812 18.54101562 16.91015625 19.63671875 16.4453125 20.765625 C15.96835937 21.87421875 15.49140625 22.9828125 15 24.125 C14.52304687 25.27226562 14.04609375 26.41953125 13.5546875 27.6015625 C12.38533057 30.40801914 11.20032794 33.20668366 10 36 C7.5842177 32.37632655 6.0829971 28.64204859 4.4375 24.625 C4.12103516 23.86960937 3.80457031 23.11421875 3.47851562 22.3359375 C0.29787888 14.61056927 -0.10065251 8.35415816 0 0 Z " fill="#D8E7EB" transform="translate(429,385)"/>
</svg>
